<svg enable-background="new 0 0 166.526 95.903" viewBox="0 0 166.526 95.903" xmlns="http://www.w3.org/2000/svg" xmlns:xlink="http://www.w3.org/1999/xlink"><clipPath id="a"><path d="m0 0h166.526v95.903h-166.526z"/></clipPath><path clip-path="url(#a)" d="m4.427 81.903h57.096c1.251 0 2.089 1.104 2.089 2.41 0 1.678-1.374 2.59-3.244 2.59h-3.481c-2.444 0-4.426 2.056-4.426 4.5 0 2.445 1.982 4.5 4.426 4.5h69.52c2.445 0 4.428-2.055 4.428-4.5 0-2.444-1.982-4.5-4.428-4.5h-3.48c-1.869 0-3.243-.912-3.243-2.59 0-1.307.838-2.41 2.088-2.41h29.228c2.444 0 4.426-2.055 4.426-4.5 0-2.444-1.981-4.5-4.426-4.5h-3.496c-1.869 0-3.243-1.322-3.243-3s1.374-3 3.243-3h14.596c2.444 0 4.426-1.555 4.426-4s-1.981-4-4.426-4h-51.893c-1.251 0-2.09-2.104-2.09-3.41 0-1.678 1.374-3.59 3.243-3.59h13.104c2.444 0 4.426-2.055 4.426-4.5s-1.981-4.5-4.426-4.5h-107.598c-2.445 0-4.427 2.055-4.427 4.5s1.982 4.5 4.427 4.5h4.47c1.87 0 3.244 1.912 3.244 3.59 0 1.307-.838 3.41-2.089 3.41h-6.962c-2.445 0-4.427 1.555-4.427 4s1.982 4 4.427 4h5.807c1.87 0 3.244 1.322 3.244 3s-1.374 3-3.244 3h-16.909c-2.445 0-4.427 2.056-4.427 4.5 0 2.446 1.981 4.5 4.427 4.5" fill="#3cc1a7"/><path d="m59.456 15.338c-13.816-1.155-23.538-3.913-23.538-7.128 0-4.259 17.044-7.71 38.069-7.71 21.023 0 38.068 3.451 38.068 7.71 0 4.258-17.045 7.71-38.068 7.71-2.146 0-4.25-.036-6.299-.105" style="fill:none;stroke:#472168;stroke-linecap:round;stroke-linejoin:round;stroke-miterlimit:10;clip-path:url(#a)"/><path d="m64.769 15.692c-.607-.031-1.209-.064-1.804-.101" style="fill:none;stroke:#472168;stroke-linecap:round;stroke-linejoin:round;stroke-miterlimit:10;clip-path:url(#a)"/><ellipse cx="73.987" cy="47.242" rx="36.732" ry="7.71" style="fill:none;stroke:#472168;stroke-linecap:round;stroke-linejoin:round;stroke-miterlimit:10;clip-path:url(#a)"/><path d="m112.055 8.21v34.506c0 17.182-13.928 31.108-31.107 31.108h-13.92c-17.181 0-31.109-13.927-31.109-31.108v-34.506" style="fill:none;stroke:#472168;stroke-linecap:round;stroke-linejoin:round;stroke-miterlimit:10;clip-path:url(#a)"/><path d="m56.667 34.566-3.513 3.581c-1.446 1.047-2.105 2.872-1.66 4.602l5.221 16.919c.423 1.433 1.92 2.258 3.358 1.851l7.533-2.356" style="fill:none;stroke:#472168;stroke-linecap:round;stroke-linejoin:round;stroke-miterlimit:10;clip-path:url(#a)"/><path clip-path="url(#a)" d="m64.543 56.24c-1.628.48-3.337-.45-3.817-2.078l-4.874-16.519c-.48-1.628.45-3.337 2.078-3.817l13.796-4.07c2.77-.817 5.678.765 6.495 3.535l4.264 14.451c.48 1.628-.45 3.337-2.078 3.818" fill="#fff"/><path d="m64.543 56.24c-1.628.48-3.337-.45-3.817-2.078l-4.874-16.519c-.48-1.628.45-3.337 2.078-3.817l13.796-4.07c2.77-.817 5.678.765 6.495 3.535l4.264 14.451c.48 1.628-.45 3.337-2.078 3.818" style="fill:none;stroke:#472168;stroke-linecap:round;stroke-linejoin:round;stroke-miterlimit:10;clip-path:url(#a)"/><path d="m59.098 59.73 1.782-2.143" style="fill:none;stroke:#472168;stroke-linecap:round;stroke-linejoin:round;stroke-miterlimit:10;clip-path:url(#a)"/><path clip-path="url(#a)" d="m66.281 39.933 13.681-9.685c2.746-1.945 6.549-1.295 8.493 1.452l10.146 14.33c1.143 1.614.76 3.849-.854 4.992l-15.731 11.137c-1.614 1.143-3.849.761-4.992-.854l-11.597-16.38c-1.142-1.614-.76-3.849.854-4.992" fill="#fff"/><g fill="none" stroke="#472168" stroke-linecap="round" stroke-linejoin="round" stroke-miterlimit="10"><path clip-path="url(#a)" d="m66.281 39.933 13.681-9.685c2.746-1.945 6.549-1.295 8.493 1.452l10.146 14.33c1.143 1.614.76 3.849-.854 4.992l-15.731 11.137c-1.614 1.143-3.849.761-4.992-.854l-11.597-16.38c-1.142-1.614-.76-3.849.854-4.992z"/><path clip-path="url(#a)" d="m99.064 49.238-1.158 5.827c-.244.784-.745 1.465-1.421 1.933l-17.41 12.666c-1.432.991-3.394.645-4.399-.776l-12.131-16.69c-1.142-1.74-1.104-4.001.097-5.701l2.525-5.271"/><path clip-path="url(#a)" d="m77.326 68.059 1.158-3.036"/><path clip-path="url(#a)" d="m82.438 29.488-5.184 14.622"/><path clip-path="url(#a)" d="m86.156 30.59-2.614 7.373"/><path clip-path="url(#a)" d="m110.719 47.242c0 4.258-16.445 7.71-36.732 7.71-20.286 0-36.731-3.452-36.731-7.71"/><path clip-path="url(#a)" d="m76.346.903v8"/><path clip-path="url(#a)" d="m80.346.903v7"/></g></svg>