<svg enable-background="new 0 0 167.8 142.961" viewBox="0 0 167.8 142.961" xmlns="http://www.w3.org/2000/svg" xmlns:xlink="http://www.w3.org/1999/xlink"><clipPath id="a"><path d="m0 0h167.8v142.961h-167.8z"/></clipPath><path clip-path="url(#a)" d="m72.382 87.961h-5.473c1.41 0 2.475-1.48 2.475-2.97 0-1.691-1.371-3.03-3.062-3.03h-48.09c-1.691 0-3.062 1.309-3.062 3s1.371 3 3.062 3h5.473c-1.41 0-2.475 1.481-2.475 2.97 0 1.692 1.371 3.03 3.062 3.03h48.09c1.691 0 3.062-1.309 3.062-3s-1.371-3-3.062-3" fill="#3cc1a7"/><path clip-path="url(#a)" d="m163.373 113.961h-16.908c-1.87 0-3.244-1.322-3.244-3s1.374-3 3.244-3h5.807c2.445 0 4.427-1.555 4.427-4s-1.981-4-4.427-4h-6.962c-1.251 0-2.089-2.104-2.089-3.41 0-1.678 1.374-3.59 3.244-3.59h4.47c2.444 0 4.427-2.055 4.427-4.5s-1.982-4.5-4.427-4.5h-18.228c-1.293 0-2.242-.84-2.242-2 0-1.161.949-2 2.242-2h2.408c1.691 0 3.062-1.309 3.062-3s-1.371-3-3.062-3h-48.09c-1.691 0-3.062 1.309-3.062 3s1.37 3 3.062 3h2.408c1.294 0 2.244.839 2.244 2 0 1.16-.95 2-2.244 2h-46.097c-2.445 0-4.426 2.055-4.426 4.5s1.981 4.5 4.426 4.5h13.103c1.869 0 3.243 1.912 3.243 3.59 0 1.307-.838 3.41-2.089 3.41h-51.893c-2.444 0-4.426 1.555-4.426 4s1.982 4 4.426 4h14.598c1.869 0 3.243 1.322 3.243 3s-1.374 3-3.243 3h-3.496c-2.445 0-4.426 2.056-4.426 4.5 0 2.445 1.981 4.5 4.426 4.5h29.227c1.25 0 2.088 1.104 2.088 2.41 0 1.678-1.374 2.59-3.243 2.59h-3.481c-2.445 0-4.427 2.056-4.427 4.5 0 2.445 1.982 4.5 4.427 4.5h28.257c-1.691 0-3.062 1.309-3.062 3s1.371 3 3.062 3h19.65c1.69 0 3.062-1.309 3.062-3s-1.371-3-3.062-3h21.612c2.444 0 4.427-2.055 4.427-4.5 0-2.444-1.982-4.5-4.427-4.5h-3.48c-1.87 0-3.244-.912-3.244-2.59 0-1.307.838-2.41 2.089-2.41h57.096c2.445 0 4.428-2.055 4.428-4.5 0-2.444-1.983-4.5-4.428-4.5" fill="#3cc1a7"/><path clip-path="url(#a)" d="m111.554 88.029s-58.302-55.022-106.481-61.559c-12.679-1.72 4.251 25.842 11.691 31.529l2.362 1.462s-9.046 13.248 46.323 56.931c0 0 15.992 1.84 25.527-1.289 14.807-4.859 1.445-5.511 7.595-9.459 6.15-3.947 22.652-3.113 20.587-8.693-2.065-5.581-7.604-8.922-7.604-8.922" fill="#fff"/><path clip-path="url(#a)" d="m86.205 76.241-23.956-16.972c-6.256-4.433-7.735-13.098-3.302-19.354 4.432-6.256 13.097-7.735 19.353-3.302l23.956 16.972c6.257 4.432 7.734 13.097 3.303 19.354-4.433 6.256-13.098 7.734-19.354 3.302" fill="#fff"/><path d="m86.205 76.241-23.956-16.972c-6.256-4.433-7.735-13.098-3.302-19.354 4.432-6.256 13.097-7.735 19.353-3.302l23.956 16.972c6.257 4.432 7.734 13.097 3.303 19.354-4.433 6.256-13.098 7.734-19.354 3.302z" style="fill:none;stroke:#472168;stroke-linecap:round;stroke-linejoin:round;stroke-miterlimit:10;clip-path:url(#a)"/><path clip-path="url(#a)" d="m116.892 92.311s-63.641-59.303-111.819-65.841c-12.679-1.72 4.251 25.842 11.692 31.528 6.355 4.858 25.956 7.62 27.101 17.394" fill="#fff"/><path d="m116.892 92.311s-63.641-59.303-111.819-65.841c-12.679-1.72 4.251 25.842 11.692 31.528 6.355 4.858 25.956 7.62 27.101 17.394" style="fill:none;stroke:#472168;stroke-linecap:round;stroke-linejoin:round;stroke-miterlimit:10;clip-path:url(#a)"/><path clip-path="url(#a)" d="m19.125 59.46s-9.046 13.249 46.323 56.931" fill="#fff"/><path d="m19.125 59.46s-9.046 13.249 46.323 56.931" style="fill:none;stroke:#472168;stroke-linecap:round;stroke-linejoin:round;stroke-miterlimit:10;clip-path:url(#a)"/><path clip-path="url(#a)" d="m26.757 42.299c.429-1.045 1.624-1.544 2.668-1.115 1.045.429 1.544 1.624 1.115 2.669-.429 1.044-1.624 1.543-2.668 1.114-1.045-.429-1.544-1.623-1.115-2.668" fill="#472168"/><path d="m20.639 60.211.614 4.113 3.302-2.434" style="fill:none;stroke:#472168;stroke-linecap:round;stroke-linejoin:round;stroke-miterlimit:10;clip-path:url(#a)"/><path d="m25.264 62.111.614 4.112 3.302-2.434" style="fill:none;stroke:#472168;stroke-linecap:round;stroke-linejoin:round;stroke-miterlimit:10;clip-path:url(#a)"/><path d="m29.89 64.01.613 4.113 3.303-2.435" style="fill:none;stroke:#472168;stroke-linecap:round;stroke-linejoin:round;stroke-miterlimit:10;clip-path:url(#a)"/><path d="m34.402 66.084.024 4.342 4.339-2.143" style="fill:none;stroke:#472168;stroke-linecap:round;stroke-linejoin:round;stroke-miterlimit:10;clip-path:url(#a)"/><path d="m75.295 58.937c.722 7.825-1.276 16.348-6.212 23.924-5.899 9.054-14.731 14.815-23.776 16.49" style="fill:none;stroke:#472168;stroke-width:1.044;stroke-linecap:round;stroke-linejoin:round;stroke-miterlimit:10;clip-path:url(#a)"/><path d="m52.89 106.083c8.81-3.378 16.997-9.829 22.883-18.864 4.587-7.04 7.316-14.791 7.568-22.462" style="fill:none;stroke:#472168;stroke-width:1.044;stroke-linecap:round;stroke-linejoin:round;stroke-miterlimit:10;clip-path:url(#a)"/><path clip-path="url(#a)" d="m72.737 90.939-6.092-3.988c-1.101-.721-1.41-2.199-.689-3.3l4.285-6.544c.721-1.103 2.198-1.41 3.299-.689l6.092 3.989c1.102.721 1.41 2.198.689 3.299l-4.284 6.544c-.721 1.103-2.199 1.41-3.3.689" fill="#fff"/><path d="m72.737 90.939-6.092-3.988c-1.101-.721-1.41-2.199-.689-3.3l4.285-6.544c.721-1.103 2.198-1.41 3.299-.689l6.092 3.989c1.102.721 1.41 2.198.689 3.299l-4.284 6.544c-.721 1.103-2.199 1.41-3.3.689z" style="fill:none;stroke:#472168;stroke-width:1.044;stroke-linecap:round;stroke-linejoin:round;stroke-miterlimit:10;clip-path:url(#a)"/><path clip-path="url(#a)" d="m76.031 86.819s6.308-5.322 7.707-6.428c1.375-1.088 4.082-4.707 1.668-6.571-1.525-1.176-7.791-1.969-16.323 9.04 0 0-.814 1.463.221 2.122s4.03 2.53 4.03 2.53 1.227.547 2.697-.693" fill="#fff"/><path d="m76.031 86.819s6.308-5.322 7.707-6.428c1.375-1.088 4.082-4.707 1.668-6.571-1.525-1.176-7.791-1.969-16.323 9.04 0 0-.814 1.463.221 2.122s4.03 2.53 4.03 2.53 1.227.547 2.697-.693z" style="fill:none;stroke:#472168;stroke-width:1.044;stroke-linecap:round;stroke-linejoin:round;stroke-miterlimit:10;clip-path:url(#a)"/><path clip-path="url(#a)" d="m71.004 87.835s1.272-1.023 1.766-2.808" fill="#fff"/><path d="m71.004 87.835s1.272-1.023 1.766-2.808" style="fill:none;stroke:#472168;stroke-width:1.044;stroke-linecap:round;stroke-linejoin:round;stroke-miterlimit:10;clip-path:url(#a)"/><path clip-path="url(#a)" d="m75.464 81.285c.117-.428.559-.681.987-.563.429.116.681.559.564.987-.117.429-.559.681-.987.563-.429-.117-.681-.559-.564-.987" fill="#472168"/><path clip-path="url(#a)" d="m65.813 92.903c.117-.428.559-.681.987-.564.429.117.681.56.564.988s-.559.681-.987.563c-.429-.117-.681-.559-.564-.987" fill="#472168"/><path clip-path="url(#a)" d="m60.878 96.739c.117-.429.559-.682.987-.564.429.117.681.56.564.988s-.559.68-.987.562c-.429-.116-.681-.558-.564-.986" fill="#472168"/><path clip-path="url(#a)" d="m56.273 99.368c.117-.428.559-.681.987-.563.429.117.681.559.564.988-.117.428-.559.68-.987.562-.429-.117-.681-.558-.564-.987" fill="#472168"/><path clip-path="url(#a)" d="m87.394 91.387s-.022.091-.062.263c-.044.181-.114.433-.218.743-.213.62-.522 1.509-1.039 2.507-.238.512-.561 1.027-.881 1.587-.348.542-.726 1.109-1.147 1.673-.435.554-.883 1.128-1.398 1.661-.486.561-1.042 1.067-1.602 1.57-.538.528-1.161.957-1.743 1.412-.585.454-1.224.811-1.813 1.193-.596.375-1.228.638-1.796.938-.565.309-1.144.502-1.662.712-.527.189-.996.398-1.44.499-.437.117-.819.218-1.133.301-.629.155-.988.243-.988.243-.28.069-.562-.102-.631-.381-.063-.254.072-.51.307-.606l.045-.019s.33-.136.906-.375c.288-.112.638-.25 1.04-.407.408-.139.824-.403 1.304-.62.473-.232 1.003-.448 1.511-.777.51-.32 1.081-.602 1.61-.99.524-.393 1.113-.729 1.637-1.176.519-.448 1.094-.845 1.585-1.342.517-.468 1.014-.954 1.474-1.464.489-.482.903-1.018 1.328-1.515.42-.5.788-1.017 1.148-1.498.343-.493.675-.957.949-1.405.296-.437.524-.86.752-1.226.216-.369.396-.697.536-.969.139-.271.245-.483.319-.628.071-.149.108-.229.108-.229l.01-.021c.124-.262.437-.372.698-.248.228.107.341.358.286.594" fill="#472168"/><path clip-path="url(#a)" d="m92.764 95.445s-.021.091-.062.263c-.043.18-.114.432-.219.742-.213.621-.521 1.51-1.039 2.508-.237.511-.56 1.026-.881 1.587-.347.542-.725 1.109-1.146 1.672-.436.554-.883 1.128-1.398 1.662-.486.56-1.042 1.067-1.602 1.57-.538.527-1.161.957-1.743 1.411-.585.454-1.225.812-1.813 1.193-.596.375-1.228.638-1.796.938-.565.308-1.144.502-1.662.712-.527.188-.996.397-1.44.499-.437.117-.819.218-1.133.301-.629.155-.988.243-.988.243-.28.068-.562-.103-.631-.381-.063-.254.072-.511.307-.607l.046-.018s.329-.137.905-.375c.288-.112.638-.25 1.04-.408.408-.138.824-.403 1.304-.619.473-.233 1.003-.449 1.511-.778.51-.319 1.081-.601 1.61-.989.524-.394 1.113-.73 1.637-1.177.52-.447 1.095-.845 1.585-1.342.518-.468 1.015-.954 1.475-1.463.489-.483.902-1.018 1.328-1.515.42-.5.788-1.018 1.148-1.498.342-.493.674-.957.948-1.405.296-.438.525-.861.752-1.226.216-.369.397-.697.538-.97.137-.27.244-.482.318-.628.07-.148.107-.229.107-.229l.01-.021c.125-.261.438-.372.698-.248.229.11.341.361.286.596" fill="#472168"/><path d="m9.571 36.58s-.001 3.278 1.042 4.695" style="fill:none;stroke:#472168;stroke-linecap:round;stroke-linejoin:round;stroke-miterlimit:10;clip-path:url(#a)"/><path d="m61.567 37.124s6.435-1.751 12.697 2.462c3.874 2.607 26.629 18.713 26.629 18.713s7.996 5.189 7.077 8.557" style="fill:none;stroke:#472168;stroke-linecap:round;stroke-linejoin:round;stroke-miterlimit:10;clip-path:url(#a)"/><path clip-path="url(#a)" d="m51.505 35.285 6.787 6.823c1.174.83 3.201-.031 4.502-1.871 1.302-1.84 1.427-4.046.254-4.875l-8.76-4.013" fill="#fff"/><path d="m51.505 35.285 6.787 6.823c1.174.83 3.201-.031 4.502-1.871 1.302-1.84 1.427-4.046.254-4.875l-8.76-4.013" style="fill:none;stroke:#472168;stroke-linecap:round;stroke-linejoin:round;stroke-miterlimit:10;clip-path:url(#a)"/><path clip-path="url(#a)" d="m51.642 32.43c.769-1.087 1.953-1.571 2.646-1.081s.632 1.768-.137 2.855c-.768 1.087-1.953 1.571-2.646 1.081-.693-.491-.632-1.768.137-2.855" fill="#fff"/><g fill="none" stroke-linecap="round" stroke-linejoin="round" stroke-miterlimit="10"><ellipse clip-path="url(#a)" cx="52.897" cy="33.317" rx="1.536" ry="2.41" stroke="#472168" transform="matrix(-.8166 -.5773 .5773 -.8166 76.8575 91.057)"/><path clip-path="url(#a)" d="m51.691 32.987-48.619-31.987" stroke="#3cc1a7" stroke-width="2"/><path clip-path="url(#a)" d="m48.495 20.537 3.098 5.427" stroke="#3cc1a7"/><path clip-path="url(#a)" d="m52.833 28.135.62 1.086" stroke="#3cc1a7"/><path clip-path="url(#a)" d="m39.441 34.05 6.19.867" stroke="#3cc1a7"/><path clip-path="url(#a)" d="m48.106 35.263 1.238.174" stroke="#3cc1a7"/><path clip-path="url(#a)" d="m87.354 54.19 13.617 9.971" stroke="#3cc1a7"/><path clip-path="url(#a)" d="m88.084 59.28 8.611 6.305" stroke="#3cc1a7"/></g></svg>