<svg enable-background="new 0 0 185.544 114.694" viewBox="0 0 185.544 114.694" xmlns="http://www.w3.org/2000/svg" xmlns:xlink="http://www.w3.org/1999/xlink"><clipPath id="a"><path d="m0 0h185.544v114.694h-185.544z"/></clipPath><path clip-path="url(#a)" d="m81.486 53.345h6.204c6.864 0 12.521-5.953 12.521-12.816 0-6.864-5.49-12.719-12.353-12.719-1.833 0-3.557.358-5.124 1.07.08-.838.129-1.713.129-2.577 0-14.936-12.107-26.303-27.042-26.303-12.465 0-22.953 8.43-26.085 19.902-3.079-2.192-6.833-3.498-10.9-3.498-10.403 0-18.836 8.068-18.836 18.471 0 10.404 8.433 18.47 18.837 18.47h6.664z" fill="#3cc1a7"/><path clip-path="url(#a)" d="m171.989 64.345h4.491c4.969 0 9.063-4.31 9.063-9.278s-3.974-9.207-8.943-9.207c-1.325 0-2.574.259-3.708.775.058-.607.094-1.241.094-1.866 0-10.813-8.766-19.042-19.577-19.042-9.023 0-16.615 6.104-18.882 14.408-2.229-1.587-4.947-2.532-7.892-2.532-7.53 0-13.636 5.84-13.636 13.371 0 7.532 6.105 13.372 13.636 13.372h4.825 40.529z" fill="#3cc1a7"/><path clip-path="url(#a)" d="m63.796 84.845h-8.571c-13.379 0-24.225-10.126-24.225-23.506 0-13.379 10.845-23.507 24.224-23.507 5.231 0 10.059 1.675 14.019 4.495 4.028-14.754 17.515-25.604 33.546-25.604 19.208 0 34.778 14.603 34.778 33.812 0 1.111-.064 2.205-.166 3.284 2.015-.916 4.231-1.44 6.589-1.44 8.827 0 15.888 7.406 15.888 16.233 0 8.826-7.275 16.232-16.103 16.232h-7.979" fill="#fff"/><path d="m63.796 84.845h-8.571c-13.379 0-24.225-10.126-24.225-23.506 0-13.379 10.845-23.507 24.224-23.507 5.231 0 10.059 1.675 14.019 4.495 4.028-14.754 17.515-25.604 33.546-25.604 19.208 0 34.778 14.603 34.778 33.812 0 1.111-.064 2.205-.166 3.284 2.015-.916 4.231-1.44 6.589-1.44 8.827 0 15.888 7.406 15.888 16.233 0 8.826-7.275 16.232-16.103 16.232h-7.979" style="fill:none;stroke:#3cc1a7;stroke-linecap:round;stroke-linejoin:round;stroke-miterlimit:10;clip-path:url(#a)"/><path d="m69.796 84.845h60" style="fill:none;stroke:#3cc1a7;stroke-linecap:round;stroke-linejoin:round;stroke-miterlimit:10;clip-path:url(#a)"/><path clip-path="url(#a)" d="m117.739 53.534c0-1.334 1.081-2.415 2.415-2.415s2.415 1.081 2.415 2.415-1.081 2.415-2.415 2.415-2.415-1.081-2.415-2.415" fill="#472168"/><path clip-path="url(#a)" d="m68.739 53.534c0-1.334 1.081-2.415 2.415-2.415s2.415 1.081 2.415 2.415-1.081 2.415-2.415 2.415-2.415-1.081-2.415-2.415" fill="#472168"/><path d="m92.117 55.949s6.113 4.622 11.607 0" style="fill:none;stroke:#472168;stroke-linecap:round;stroke-linejoin:round;stroke-miterlimit:10;clip-path:url(#a)"/><path clip-path="url(#a)" d="m108.781 114.194h-19.152c-4.337 0-7.853-3.516-7.853-7.853v-19.152c0-4.337 3.516-7.854 7.853-7.854h19.152c4.337 0 7.854 3.518 7.854 7.854v19.152c0 4.337-3.517 7.853-7.854 7.853" fill="#fff"/><path d="m108.781 114.194h-19.152c-4.337 0-7.853-3.516-7.853-7.853v-19.152c0-4.337 3.516-7.854 7.853-7.854h19.152c4.337 0 7.854 3.518 7.854 7.854v19.152c0 4.337-3.517 7.853-7.854 7.853z" style="fill:none;stroke:#3cc1a7;stroke-linecap:round;stroke-linejoin:round;stroke-miterlimit:10;clip-path:url(#a)"/><path clip-path="url(#a)" d="m86.54 96.764c0-6.994 5.67-12.665 12.665-12.665s12.666 5.671 12.666 12.665c0 6.995-5.671 12.665-12.666 12.665s-12.665-5.67-12.665-12.665" fill="#fff"/><g fill="none" stroke="#3cc1a7" stroke-linecap="round" stroke-linejoin="round" stroke-miterlimit="10"><circle clip-path="url(#a)" cx="99.206" cy="96.764" r="12.666"/><path clip-path="url(#a)" d="m83.77 81.972 29.699 29.699"/><path clip-path="url(#a)" d="m113.469 81.972-29.699 29.699"/></g><path clip-path="url(#a)" d="m93.973 96.764c0-2.89 2.344-5.231 5.232-5.231 2.89 0 5.233 2.342 5.233 5.231 0 2.891-2.344 5.232-5.233 5.232-2.889.001-5.232-2.341-5.232-5.232" fill="#fff"/><circle cx="99.206" cy="96.764" r="5.233" style="fill:none;stroke:#3cc1a7;stroke-linecap:round;stroke-linejoin:round;stroke-miterlimit:10;clip-path:url(#a)"/><path clip-path="url(#a)" d="m135.244 78.345s3.427 13.187-13.939 25.95c-1.565 1.151-6.311 4.419-8.775.254-2.979-5.034 8.059-3.521 5.923-5.223l-.979-.856" fill="#fff"/><path d="m135.244 78.345s3.427 13.187-13.939 25.95c-1.565 1.151-6.311 4.419-8.775.254-2.979-5.034 8.059-3.521 5.923-5.223l-.979-.856" style="fill:none;stroke:#3cc1a7;stroke-linecap:round;stroke-linejoin:round;stroke-miterlimit:10;clip-path:url(#a)"/><path d="m130.175 80.226c0 10.369-6.204 16.346-9.017 16.659 0 0-3.268-1.457-4.523-1.04" style="fill:none;stroke:#3cc1a7;stroke-linecap:round;stroke-linejoin:round;stroke-miterlimit:10;clip-path:url(#a)"/><path clip-path="url(#a)" d="m63.034 80.187s-1.113 11.94 13.921 24.109c1.51 1.222 6.311 4.418 8.775.254 2.98-5.036-8.058-3.522-5.923-5.223l1.406-.783" fill="#fff"/><path d="m63.034 80.187s-1.113 11.94 13.921 24.109c1.51 1.222 6.311 4.418 8.775.254 2.98-5.036-8.058-3.522-5.923-5.223l1.406-.783" style="fill:none;stroke:#3cc1a7;stroke-linecap:round;stroke-linejoin:round;stroke-miterlimit:10;clip-path:url(#a)"/><path d="m81.625 95.845c-1.255-.417-4.524 1.039-4.524 1.039-2.812-.312-7.68-6.539-9.016-19.164" style="fill:none;stroke:#3cc1a7;stroke-linecap:round;stroke-linejoin:round;stroke-miterlimit:10;clip-path:url(#a)"/><path clip-path="url(#a)" d="m115.995 57.09s4.395-2.608 9.443-.495" fill="#fff"/><path d="m115.995 57.09s4.395-2.608 9.443-.495" style="fill:none;stroke:#3cc1a7;stroke-linecap:round;stroke-linejoin:round;stroke-miterlimit:10;clip-path:url(#a)"/><path clip-path="url(#a)" d="m65.973 56.691s4.598-2.231 9.451.296" fill="#fff"/><path d="m65.973 56.691s4.598-2.231 9.451.296" style="fill:none;stroke:#3cc1a7;stroke-linecap:round;stroke-linejoin:round;stroke-miterlimit:10;clip-path:url(#a)"/><path clip-path="url(#a)" d="m117.096 25.329c-.988-.469-1.66-.727-2.815-1.134" fill="#fff"/><path d="m117.096 25.329c-.988-.469-1.66-.727-2.815-1.134" style="fill:none;stroke:#3cc1a7;stroke-linecap:round;stroke-linejoin:round;stroke-miterlimit:10;clip-path:url(#a)"/><path clip-path="url(#a)" d="m129.248 37.687s-1.578-6.708-10.334-11.452" fill="#fff"/><path d="m129.248 37.687s-1.578-6.708-10.334-11.452" style="fill:none;stroke:#3cc1a7;stroke-linecap:round;stroke-linejoin:round;stroke-miterlimit:10;clip-path:url(#a)"/><path clip-path="url(#a)" d="m154.834 73.64s3.665-5.629 0-11.389" fill="#fff"/><path d="m154.834 73.64s3.665-5.629 0-11.389" style="fill:none;stroke:#3cc1a7;stroke-linecap:round;stroke-linejoin:round;stroke-miterlimit:10;clip-path:url(#a)"/><path clip-path="url(#a)" d="m40.06 51.57c-1.78 2.659-3.372 6.358-2.916 10.753" fill="#fff"/><path d="m40.06 51.57c-1.78 2.659-3.372 6.358-2.916 10.753" style="fill:none;stroke:#3cc1a7;stroke-linecap:round;stroke-linejoin:round;stroke-miterlimit:10;clip-path:url(#a)"/><path clip-path="url(#a)" d="m44.146 47.022s-1.118.863-2.466 2.425" fill="#fff"/><path d="m44.146 47.022s-1.118.863-2.466 2.425" style="fill:none;stroke:#3cc1a7;stroke-linecap:round;stroke-linejoin:round;stroke-miterlimit:10;clip-path:url(#a)"/></svg>