<svg enable-background="new 0 0 209.159 154.345" viewBox="0 0 209.159 154.345" xmlns="http://www.w3.org/2000/svg" xmlns:xlink="http://www.w3.org/1999/xlink"><clipPath id="a"><path d="m0 0h209.159v154.345h-209.159z"/></clipPath><path clip-path="url(#a)" d="m139.771 99.121h4.491c4.969 0 9.063-4.309 9.063-9.277s-3.974-9.207-8.942-9.207c-1.326 0-2.575.259-3.708.774.057-.606.093-1.241.093-1.866 0-10.812-8.765-19.042-19.577-19.042-9.022 0-16.615 6.104-18.882 14.408-2.229-1.587-4.947-2.532-7.891-2.532-7.531 0-13.636 5.84-13.636 13.371 0 7.532 6.105 13.371 13.636 13.371h4.825z" fill="#3cc1a7"/><path clip-path="url(#a)" d="m84.803 55.121h5.143c5.69 0 10.38-4.935 10.38-10.624 0-5.69-4.551-10.544-10.241-10.544-1.519 0-2.949.297-4.247.887.066-.695.107-1.42.107-2.137 0-12.381-10.037-21.805-22.418-21.805-10.333 0-19.027 6.989-21.624 16.5-2.552-1.818-5.664-2.9-9.036-2.9-8.624 0-15.615 6.687-15.615 15.312 0 8.624 6.991 15.311 15.616 15.311h5.524z" fill="#3cc1a7"/><path clip-path="url(#a)" d="m91.265 98.548c10.813 0 16.099-4.757 16.411-7.178 0 0-.932-2.521-.304-3.739.709-1.377 3.514-4.635 5.86-2.01 2.345 2.625 3.812 3.944 1.165 6.868-10.835 11.968-22.343 10.395-22.343 10.395" fill="#fff"/><path clip-path="url(#a)" d="m148.634 89.614c8.72 0 12.984-3.836 13.235-5.789 0 0-.751-2.032-.245-3.016.571-1.11 2.834-3.738 4.726-1.621 1.893 2.117 3.075 3.183.94 5.541-8.739 9.649-18.021 8.382-18.021 8.382" fill="#3cc1a7"/><path d="m25.136 129.189h-4.954c-1.694 0-3.067 1.373-3.067 3.067v2.496h11.088v-2.496c0-1.694-1.373-3.067-3.067-3.067z" style="fill:none;stroke:#3cc1a7;stroke-linecap:round;stroke-linejoin:round;stroke-miterlimit:10;clip-path:url(#a)"/><path d="m24.507 130.983h-3.696c-1.107 0-2.004.897-2.004 2.005v1.414h7.704v-1.414c0-1.108-.897-2.005-2.004-2.005z" style="fill:none;stroke:#3cc1a7;stroke-linecap:round;stroke-linejoin:round;stroke-miterlimit:10;clip-path:url(#a)"/><path clip-path="url(#a)" d="m107.578 68.621h-3.571c-13.379 0-24.225-10.126-24.225-23.505 0-13.38 10.845-23.507 24.224-23.507 5.23 0 10.059 1.675 14.019 4.495 4.028-14.754 17.515-25.604 33.545-25.604 19.208 0 34.778 14.603 34.778 33.812 0 1.111-.063 2.205-.166 3.284 2.015-.916 4.232-1.44 6.589-1.44 8.827 0 15.889 7.406 15.889 16.233 0 8.826-7.276 16.232-16.104 16.232h-7.979" fill="#fff"/><path d="m107.578 68.621h-3.571c-13.379 0-24.225-10.126-24.225-23.505 0-13.38 10.845-23.507 24.224-23.507 5.23 0 10.059 1.675 14.019 4.495 4.028-14.754 17.515-25.604 33.545-25.604 19.208 0 34.778 14.603 34.778 33.812 0 1.111-.063 2.205-.166 3.284 2.015-.916 4.232-1.44 6.589-1.44 8.827 0 15.889 7.406 15.889 16.233 0 8.826-7.276 16.232-16.104 16.232h-7.979" style="fill:none;stroke:#3cc1a7;stroke-linecap:round;stroke-linejoin:round;stroke-miterlimit:10;clip-path:url(#a)"/><path d="m113.578 68.621h65" style="fill:none;stroke:#3cc1a7;stroke-linecap:round;stroke-linejoin:round;stroke-miterlimit:10;clip-path:url(#a)"/><path clip-path="url(#a)" d="m153.521 46.311c0-1.334 1.081-2.415 2.415-2.415s2.415 1.081 2.415 2.415-1.081 2.415-2.415 2.415-2.415-1.081-2.415-2.415" fill="#472168"/><path clip-path="url(#a)" d="m104.521 46.311c0-1.334 1.081-2.415 2.415-2.415s2.415 1.081 2.415 2.415-1.081 2.415-2.415 2.415-2.415-1.081-2.415-2.415" fill="#472168"/><path d="m124.899 51.726s6.112 4.621 11.606 0" style="fill:none;stroke:#472168;stroke-linecap:round;stroke-linejoin:round;stroke-miterlimit:10;clip-path:url(#a)"/><path clip-path="url(#a)" d="m115.148 65.908c-3.873 6.505-4.877 13.806-3.601 15.53 0 0 3.291 1.404 3.841 2.608 0 0 1.65 2.326-2.494 1.171-.314-.087-1.295-.134-1.295-.134-2.699-.408 5.383 4.921-.334 6.163-4.729 1.026-5.043-2.941-5.248-4.873-.928-8.716.851-15.568 2.859-20.241" fill="#fff"/><path d="m115.148 65.908c-3.873 6.505-4.877 13.806-3.601 15.53 0 0 3.291 1.404 3.841 2.608 0 0 1.65 2.326-2.494 1.171-.314-.087-1.295-.134-1.295-.134-2.699-.408 5.383 4.921-.334 6.163-4.729 1.026-5.043-2.941-5.248-4.873-.928-8.716.851-15.568 2.859-20.241" style="fill:none;stroke:#3cc1a7;stroke-linecap:round;stroke-linejoin:round;stroke-miterlimit:10;clip-path:url(#a)"/><path clip-path="url(#a)" d="m179.198 65.129c-2.394 7.655-7.769 13.634-10.018 13.758 0 0-3.181-1.637-4.458-1.292 0 0-2.845.214.69 2.667.267.187.93.911.93.911 2.037 1.818-8.898-.311-6.206 4.884 2.229 4.296 7.157 1.312 8.775.237 10.185-6.766 14.22-15.267 15.729-19.791" fill="#fff"/><path d="m179.198 65.129c-2.394 7.655-7.769 13.634-10.018 13.758 0 0-3.181-1.637-4.458-1.292 0 0-2.845.214.69 2.667.267.187.93.911.93.911 2.037 1.818-8.898-.311-6.206 4.884 2.229 4.296 7.157 1.312 8.775.237 10.185-6.766 14.22-15.267 15.729-19.791" style="fill:none;stroke:#3cc1a7;stroke-linecap:round;stroke-linejoin:round;stroke-miterlimit:10;clip-path:url(#a)"/><path clip-path="url(#a)" d="m165.877 9.105c-.988-.469-1.66-.727-2.815-1.134" fill="#fff"/><path d="m165.877 9.105c-.988-.469-1.66-.727-2.815-1.134" style="fill:none;stroke:#3cc1a7;stroke-linecap:round;stroke-linejoin:round;stroke-miterlimit:10;clip-path:url(#a)"/><path clip-path="url(#a)" d="m178.029 21.463s-1.578-6.708-10.334-11.452" fill="#fff"/><path d="m178.029 21.463s-1.578-6.708-10.334-11.452" style="fill:none;stroke:#3cc1a7;stroke-linecap:round;stroke-linejoin:round;stroke-miterlimit:10;clip-path:url(#a)"/><path clip-path="url(#a)" d="m203.615 57.416s3.665-5.629 0-11.389" fill="#fff"/><path d="m203.615 57.416s3.665-5.629 0-11.389" style="fill:none;stroke:#3cc1a7;stroke-linecap:round;stroke-linejoin:round;stroke-miterlimit:10;clip-path:url(#a)"/><path clip-path="url(#a)" d="m88.842 35.346c-1.78 2.659-3.372 6.358-2.916 10.753" fill="#fff"/><path d="m88.842 35.346c-1.78 2.659-3.372 6.358-2.916 10.753" style="fill:none;stroke:#3cc1a7;stroke-linecap:round;stroke-linejoin:round;stroke-miterlimit:10;clip-path:url(#a)"/><path clip-path="url(#a)" d="m92.928 30.798s-1.118.863-2.466 2.425" fill="#fff"/><path d="m92.928 30.798s-1.118.863-2.466 2.425" style="fill:none;stroke:#3cc1a7;stroke-linecap:round;stroke-linejoin:round;stroke-miterlimit:10;clip-path:url(#a)"/><path clip-path="url(#a)" d="m93.45 102.886c0 6.354-5.413 11.734-11.767 11.734h-53.105" fill="#fff"/><path d="m93.45 102.886c0 6.354-5.413 11.734-11.767 11.734h-53.105" style="fill:none;stroke:#3cc1a7;stroke-linecap:round;stroke-linejoin:round;stroke-miterlimit:10;clip-path:url(#a)"/><path clip-path="url(#a)" d="m23.578 114.621h-5.639c-9.631 0-17.439-7.563-17.439-17.194 0-9.632 7.807-17.059 17.438-17.059 3.766 0 7.241 1.137 10.092 3.167 2.899-10.621 12.609-18.466 24.148-18.466 13.828 0 25.036 10.495 25.036 24.323 0 .8-.046 1.579-.119 2.354 1.45-.659 3.046-1.04 4.743-1.04 4.848 0 8.957 3.263 10.631 7.631" fill="#fff"/><path d="m23.578 114.621h-5.639c-9.631 0-17.439-7.563-17.439-17.194 0-9.632 7.807-17.059 17.438-17.059 3.766 0 7.241 1.137 10.092 3.167 2.899-10.621 12.609-18.466 24.148-18.466 13.828 0 25.036 10.495 25.036 24.323 0 .8-.046 1.579-.119 2.354 1.45-.659 3.046-1.04 4.743-1.04 4.848 0 8.957 3.263 10.631 7.631" style="fill:none;stroke:#3cc1a7;stroke-linecap:round;stroke-linejoin:round;stroke-miterlimit:10;clip-path:url(#a)"/><path clip-path="url(#a)" d="m67.419 88.171c0-.96.778-1.739 1.739-1.739.96 0 1.738.779 1.738 1.739s-.778 1.739-1.738 1.739c-.961.001-1.739-.779-1.739-1.739" fill="#472168"/><path clip-path="url(#a)" d="m47.146 88.171c0-.96.778-1.739 1.739-1.739.96 0 1.738.779 1.738 1.739s-.778 1.739-1.738 1.739c-.961.001-1.739-.779-1.739-1.739" fill="#472168"/><path d="m55.975 97.07s4.4 3.327 8.355 0" style="fill:none;stroke:#472168;stroke-linecap:round;stroke-linejoin:round;stroke-miterlimit:10;clip-path:url(#a)"/><path clip-path="url(#a)" d="m128.336 78.243c0-.722.585-1.307 1.307-1.307s1.309.585 1.309 1.307-.587 1.307-1.309 1.307-1.307-.585-1.307-1.307" fill="#fff"/><path clip-path="url(#a)" d="m113.092 78.243c0-.722.585-1.307 1.308-1.307.722 0 1.308.585 1.308 1.307s-.586 1.307-1.308 1.307c-.723 0-1.308-.585-1.308-1.307" fill="#fff"/><path d="m119.73 84.934s3.31 2.501 6.282 0" style="fill:none;stroke:#fff;stroke-linecap:round;stroke-linejoin:round;stroke-miterlimit:10;clip-path:url(#a)"/><path clip-path="url(#a)" d="m61.477 70.229c-.711-.338-1.195-.523-2.027-.817" fill="#fff"/><path d="m61.477 70.229c-.711-.338-1.195-.523-2.027-.817" style="fill:none;stroke:#3cc1a7;stroke-linecap:round;stroke-linejoin:round;stroke-miterlimit:10;clip-path:url(#a)"/><path clip-path="url(#a)" d="m71.225 80.125s-1.136-4.829-7.439-8.244" fill="#fff"/><path d="m71.225 80.125s-1.136-4.829-7.439-8.244" style="fill:none;stroke:#3cc1a7;stroke-linecap:round;stroke-linejoin:round;stroke-miterlimit:10;clip-path:url(#a)"/><path clip-path="url(#a)" d="m7.022 90.12c-1.282 1.914-2.428 4.576-2.099 7.739" fill="#fff"/><path d="m7.022 90.12c-1.282 1.914-2.428 4.576-2.099 7.739" style="fill:none;stroke:#3cc1a7;stroke-linecap:round;stroke-linejoin:round;stroke-miterlimit:10;clip-path:url(#a)"/><path clip-path="url(#a)" d="m9.963 86.845s-.805.621-1.775 1.746" fill="#fff"/><path d="m9.963 86.845s-.805.621-1.775 1.746" style="fill:none;stroke:#3cc1a7;stroke-linecap:round;stroke-linejoin:round;stroke-miterlimit:10;clip-path:url(#a)"/><path clip-path="url(#a)" d="m92.054 102.884s12.975 1.237 23.095-11.34" fill="#fff"/><path d="m92.054 102.884s12.975 1.237 23.095-11.34" style="fill:none;stroke:#3cc1a7;stroke-linecap:round;stroke-linejoin:round;stroke-miterlimit:10;clip-path:url(#a)"/><path d="m106.157 87.421c-.361 1.071 1.52 3.948 1.52 3.948-.313 2.421-5.599 7.178-16.412 7.178" style="fill:none;stroke:#3cc1a7;stroke-linecap:round;stroke-linejoin:round;stroke-miterlimit:10;clip-path:url(#a)"/><path clip-path="url(#a)" d="m115.201 91.301s2.419-4.086-1.909-6.649c-2.502-1.482-3.259 1.777-2.304 4.049.427 1.018 2.304 2.205 1.514 3.291" fill="#fff"/><path d="m115.201 91.301s2.419-4.086-1.909-6.649c-2.502-1.482-3.259 1.777-2.304 4.049.427 1.018 2.304 2.205 1.514 3.291" style="fill:none;stroke:#3cc1a7;stroke-linecap:round;stroke-linejoin:round;stroke-miterlimit:10;clip-path:url(#a)"/><path clip-path="url(#a)" d="m25.278 110.113s-4.403 8.312-4.155 15.939c0 0-2.754 3.412-1.551 5.147.817 1.179 4.218 1.303 5.706.559 0 0 .1-2.641.948-3.487" fill="#fff"/><path d="m25.278 110.113s-4.403 8.312-4.155 15.939c0 0-2.754 3.412-1.551 5.147.817 1.179 4.218 1.303 5.706.559 0 0 .1-2.641.948-3.487" style="fill:none;stroke:#3cc1a7;stroke-linecap:round;stroke-linejoin:round;stroke-miterlimit:10;clip-path:url(#a)"/><path d="m29.93 110.485s-4.155 12.467-4.155 14.266c0 0 3.411 2.144 2.077 5.288" style="fill:none;stroke:#3cc1a7;stroke-linecap:round;stroke-linejoin:round;stroke-miterlimit:10;clip-path:url(#a)"/><path clip-path="url(#a)" d="m33.483 153.845h-21.038c-1.37 0-2.481-1.111-2.481-2.482v-14.129c0-1.37 1.111-2.481 2.481-2.481h21.039c1.371 0 2.482 1.111 2.482 2.481v14.129c0 1.371-1.112 2.482-2.483 2.482" fill="#fff"/><g fill="none" stroke="#3cc1a7" stroke-linecap="round" stroke-linejoin="round" stroke-miterlimit="10"><path clip-path="url(#a)" d="m33.483 153.845h-21.038c-1.37 0-2.481-1.111-2.481-2.482v-14.129c0-1.37 1.111-2.481 2.481-2.481h21.039c1.371 0 2.482 1.111 2.482 2.481v14.129c0 1.371-1.112 2.482-2.483 2.482z"/><path clip-path="url(#a)" d="m16.078 135.121v18"/><path clip-path="url(#a)" d="m30.078 135.121v18"/></g></svg>