<svg enable-background="new 0 0 134.594 85" viewBox="0 0 134.594 85" xmlns="http://www.w3.org/2000/svg" xmlns:xlink="http://www.w3.org/1999/xlink"><clipPath id="a"><path d="m0 0h134.594v85h-134.594z"/></clipPath><path d="m126.272 80.264-3.008-14.881-14.065.038-2.927 14.897s4.229 1.271 10 1.271c5.769.001 10-1.325 10-1.325z" style="fill:none;stroke:#3cc1a7;stroke-linecap:round;stroke-linejoin:round;stroke-miterlimit:10;clip-path:url(#a)"/><path clip-path="url(#a)" d="m134.094 66.989v-54.245l-8.306-5.92h-20.251l-8.305 5.777v54.388s7.888 2.468 18.795 2.468 18.067-2.468 18.067-2.468" fill="#fff"/><g fill="none" stroke="#3cc1a7" stroke-linecap="round" stroke-linejoin="round" stroke-miterlimit="10"><path clip-path="url(#a)" d="m134.094 66.989v-54.245l-8.306-5.92h-20.251l-8.305 5.777v54.388s7.888 2.468 18.795 2.468 18.067-2.468 18.067-2.468z"/><path clip-path="url(#a)" d="m132.928 13h-30"/><path clip-path="url(#a)" d="m40.032 28.478h36.861v33.123h-36.861z"/><path clip-path="url(#a)" d="m68.589 77.107 8.365-15.505h-36.98l8.365 15.505z"/><path clip-path="url(#a)" d="m68.589 13.129 8.365 15.349h-36.98l8.365-15.349z"/><circle clip-path="url(#a)" cx="58.464" cy="45.04" r="7.828"/><circle clip-path="url(#a)" cx="58.464" cy="45.04" r="4.257"/><path clip-path="url(#a)" d="m65.427 13.5v-7"/><path clip-path="url(#a)" d="m60.427 13.5v-12"/><path clip-path="url(#a)" d="m50.635 8.998h6.187v4.131h-6.187z"/></g><path clip-path="url(#a)" d="m.521 34.288 6.764-15.497c.886-2.032 3.769-2.032 4.656 0l6.763 15.497z" fill="#3cc1a7"/><path d="m.521 34.288 6.764-15.497c.886-2.032 3.769-2.032 4.656 0l6.763 15.497z" style="fill:none;stroke:#3cc1a7;stroke-linecap:round;stroke-linejoin:round;stroke-miterlimit:10;clip-path:url(#a)"/><path d="m.5 34.266h18.183v41.628h-18.183z" style="fill:none;stroke:#3cc1a7;stroke-linecap:round;stroke-linejoin:round;stroke-miterlimit:10;clip-path:url(#a)"/><path d="m9.592 44.9h9.092v16.939h-9.092z" style="fill:none;stroke:#3cc1a7;stroke-linecap:round;stroke-linejoin:round;stroke-miterlimit:10;clip-path:url(#a)"/><path d="m3.209 75.895h13.534v2.762h-13.534z" style="fill:none;stroke:#3cc1a7;stroke-linecap:round;stroke-linejoin:round;stroke-miterlimit:10;clip-path:url(#a)"/><path d="m65.427 77.5v7" style="fill:none;stroke:#3cc1a7;stroke-linecap:round;stroke-linejoin:round;stroke-miterlimit:10;clip-path:url(#a)"/><path d="m111.428 6.5v-6" style="fill:none;stroke:#3cc1a7;stroke-linecap:round;stroke-linejoin:round;stroke-miterlimit:10;clip-path:url(#a)"/><path d="m115.038 3.223h5.498v3.601h-5.498z" style="fill:none;stroke:#3cc1a7;stroke-linecap:round;stroke-linejoin:round;stroke-miterlimit:10;clip-path:url(#a)"/><path d="m62.077 77.107c0 2.342-1.898 4.239-4.239 4.239s-4.239-1.897-4.239-4.239" style="fill:none;stroke:#3cc1a7;stroke-linecap:round;stroke-linejoin:round;stroke-miterlimit:10;clip-path:url(#a)"/><path d="m116.428 68.5v-47" style="fill:none;stroke:#3cc1a7;stroke-linecap:round;stroke-linejoin:round;stroke-miterlimit:10;clip-path:url(#a)"/><path clip-path="url(#a)" d="m121.377 64.553c0-.458-.372-.83-.83-.83s-.83.372-.83.83.372.83.83.83.83-.372.83-.83" fill="#3cc1a7"/><path clip-path="url(#a)" d="m121.377 58.197c0-.458-.372-.83-.83-.83s-.83.372-.83.83.372.83.83.83.83-.372.83-.83" fill="#3cc1a7"/><path clip-path="url(#a)" d="m121.377 51.842c0-.458-.372-.83-.83-.83s-.83.372-.83.83.372.83.83.83.83-.372.83-.83" fill="#3cc1a7"/><path clip-path="url(#a)" d="m121.377 45.486c0-.458-.372-.83-.83-.83s-.83.372-.83.83.372.83.83.83.83-.372.83-.83" fill="#3cc1a7"/><path clip-path="url(#a)" d="m121.377 39.131c0-.458-.372-.83-.83-.83s-.83.372-.83.83.372.83.83.83.83-.372.83-.83" fill="#3cc1a7"/><path clip-path="url(#a)" d="m121.377 32.775c0-.458-.372-.83-.83-.83s-.83.372-.83.83.372.83.83.83.83-.372.83-.83" fill="#3cc1a7"/><path clip-path="url(#a)" d="m121.377 26.42c0-.458-.372-.83-.83-.83s-.83.372-.83.83.372.83.83.83.83-.372.83-.83" fill="#3cc1a7"/><path d="m115.333 77.757c5.77 0 10-1.326 10-1.326" style="fill:none;stroke:#3cc1a7;stroke-linecap:round;stroke-linejoin:round;stroke-miterlimit:10;clip-path:url(#a)"/><path d="m114.542 73.911c5.769 0 10-1.326 10-1.326" style="fill:none;stroke:#3cc1a7;stroke-linecap:round;stroke-linejoin:round;stroke-miterlimit:10;clip-path:url(#a)"/></svg>