<svg enable-background="new 0 0 143.037 77.069" viewBox="0 0 143.037 77.069" xmlns="http://www.w3.org/2000/svg" xmlns:xlink="http://www.w3.org/1999/xlink"><clipPath id="a"><path d="m0 0h143.037v77.069h-143.037z"/></clipPath><path d="m39.07 21.428c-2.651 1.369-.517 6.173-.517 6.173l2.752 5.439c.198 2.056-4.826 4.224-11.222 4.841-6.396.618-11.742-.548-11.94-2.604 0 0 1.811-15.829 6.89-17.99 5.079-2.16 28.071-7.97 37.714-8.901 7.702-.744 32.724.428 38.123 1.576 5.399 1.149 10.209 16.374 10.209 16.374.198 2.056-4.827 4.206-11.223 4.824-6.396.617-11.743-.557-11.941-2.613l1.659-5.87s1.175-5.125-1.688-5.962c-2.864-.836-21.25 2.362-24.53 2.578-6.082.401-21.635.767-24.286 2.135z" style="fill:none;stroke:#472168;stroke-linecap:round;stroke-linejoin:round;stroke-miterlimit:10;clip-path:url(#a)"/><path d="m91.192 63.769h-54.73c-2.076 0-3.759-1.683-3.759-3.758v-5.898h62.247v5.898c0 2.075-1.682 3.758-3.758 3.758z" style="fill:none;stroke:#472168;stroke-linecap:round;stroke-linejoin:round;stroke-miterlimit:10;clip-path:url(#a)"/><path clip-path="url(#a)" d="m51.057 25.583c-1.911 0-3.461-1.549-3.461-3.461v-5.617h-5.609c0 2.609-2.279 11.01-2.279 11.01l-7.004 26.597h62.246l-7.004-26.597s-2.278-8.401-2.278-11.01h-5.609v5.617c0 1.912-1.55 3.461-3.461 3.461z" fill="#fff"/><path d="m51.057 25.583c-1.911 0-3.461-1.549-3.461-3.461v-5.617h-5.609c0 2.609-2.279 11.01-2.279 11.01l-7.004 26.597h62.246l-7.004-26.597s-2.278-8.401-2.278-11.01h-5.609v5.617c0 1.912-1.55 3.461-3.461 3.461z" style="fill:none;stroke:#472168;stroke-linecap:round;stroke-linejoin:round;stroke-miterlimit:10;clip-path:url(#a)"/><path clip-path="url(#a)" d="m50.565 36.515c0-7.324 5.937-13.261 13.261-13.261s13.263 5.937 13.263 13.261-5.938 13.261-13.263 13.261c-7.324 0-13.261-5.937-13.261-13.261" fill="#fff"/><circle cx="63.827" cy="36.515" r="13.262" style="fill:none;stroke:#472168;stroke-linecap:round;stroke-linejoin:round;stroke-miterlimit:10;clip-path:url(#a)"/><circle cx="63.827" cy="36.515" r="3.761" style="fill:none;stroke:#472168;stroke-linecap:round;stroke-linejoin:round;stroke-miterlimit:10;clip-path:url(#a)"/><path clip-path="url(#a)" d="m62.329 27.515c0-.827.671-1.498 1.498-1.498.828 0 1.498.671 1.498 1.498s-.67 1.498-1.498 1.498c-.827 0-1.498-.671-1.498-1.498" fill="#472168"/><path clip-path="url(#a)" d="m56.403 31.21c-.585-.585-.585-1.534 0-2.119s1.534-.585 2.119 0 .585 1.534 0 2.119c-.584.585-1.534.585-2.119 0" fill="#472168"/><path clip-path="url(#a)" d="m54.827 38.013c-.827 0-1.498-.671-1.498-1.498 0-.828.671-1.498 1.498-1.498s1.498.67 1.498 1.498c0 .827-.671 1.498-1.498 1.498" fill="#472168"/><path clip-path="url(#a)" d="m58.522 43.938c-.585.585-1.534.585-2.119 0s-.585-1.534 0-2.119 1.534-.585 2.119 0 .585 1.535 0 2.119" fill="#472168"/><path clip-path="url(#a)" d="m65.325 45.515c0 .827-.671 1.498-1.498 1.498-.828 0-1.498-.671-1.498-1.498s.67-1.498 1.498-1.498c.827 0 1.498.671 1.498 1.498" fill="#472168"/><path clip-path="url(#a)" d="m71.25 41.819c.585.585.585 1.534 0 2.119s-1.534.585-2.119 0-.585-1.534 0-2.119 1.534-.585 2.119 0" fill="#472168"/><path clip-path="url(#a)" d="m72.827 35.017c.826 0 1.497.671 1.497 1.498 0 .828-.671 1.498-1.497 1.498-.827 0-1.498-.67-1.498-1.498 0-.827.671-1.498 1.498-1.498" fill="#472168"/><path clip-path="url(#a)" d="m69.131 29.092c.585-.585 1.534-.585 2.119 0s.585 1.534 0 2.119c-.584.585-1.534.585-2.119 0s-.585-1.534 0-2.119" fill="#472168"/><path d="m109.356 21.436c.17 1.764-4.142 3.609-9.631 4.139-5.488.53-10.076-.477-10.246-2.241" style="fill:none;stroke:#472168;stroke-linecap:round;stroke-linejoin:round;stroke-miterlimit:10;clip-path:url(#a)"/><path d="m38.686 28.262c.17 1.764-4.1 3.605-9.536 4.13s-9.981-.487-10.152-2.251" style="fill:none;stroke:#472168;stroke-linecap:round;stroke-linejoin:round;stroke-miterlimit:10;clip-path:url(#a)"/><path d="m18.726 28.653s-11.26-.355-11.76 6.364 17.563 11.049 11.406 14.759c-6.156 3.71-21.906-.54-16.906 6.21s32.38-6.21 32.38-6.21" style="fill:none;stroke:#472168;stroke-linecap:round;stroke-linejoin:round;stroke-miterlimit:10;clip-path:url(#a)"/><path d="m107.938 69.82c-.503 2.564 3.086 3.749 3.086 3.749 0 1.657-7.083 3-15.82 3-8.738 0-15.821-1.343-15.821-3 0 0 3.496-1.041 4.21-3.293" style="fill:none;stroke:#3cc1a7;stroke-linecap:round;stroke-linejoin:round;stroke-miterlimit:10;clip-path:url(#a)"/><path clip-path="url(#a)" d="m127.549 40.08c0 17.863-14.482 32.346-32.347 32.346-17.863 0-32.345-14.482-32.345-32.346" fill="#fff"/><path d="m127.549 40.08c0 17.863-14.482 32.346-32.347 32.346-17.863 0-32.345-14.482-32.345-32.346" style="fill:none;stroke:#3cc1a7;stroke-linecap:round;stroke-linejoin:round;stroke-miterlimit:10;clip-path:url(#a)"/><path clip-path="url(#a)" d="m127.549 39.914c0 2.67-14.482 4.834-32.347 4.834-17.863 0-32.345-2.164-32.345-4.834s14.481-4.834 32.345-4.834 32.347 2.164 32.347 4.834" fill="#fff"/><ellipse cx="95.203" cy="39.914" rx="32.346" ry="4.834" style="fill:none;stroke:#3cc1a7;stroke-linecap:round;stroke-linejoin:round;stroke-miterlimit:10;clip-path:url(#a)"/><path d="m127.162 44.985c0 .993-3.252.938-6.73 1.695-1.761.384-3.561 2.696-5.982 2.984-1.948.233-4.272-1.56-6.557-1.402-2.022.139-4.062 2.243-6.289 2.312-2.064.066-4.236-1.898-6.431-1.898-2.192 0-4.365 1.965-6.429 1.899-2.228-.07-4.267-2.175-6.289-2.313-2.285-.157-4.609 1.636-6.557 1.403-2.423-.289-4.222-2.601-5.982-2.984-3.48-.759-6.732-.703-6.732-1.696" style="fill:none;stroke:#3cc1a7;stroke-linecap:round;stroke-linejoin:round;stroke-miterlimit:10;clip-path:url(#a)"/><path clip-path="url(#a)" d="m69.849 42.914c5.925 1.116 15.076 1.834 25.354 1.834 10.277 0 19.429-.718 25.354-1.834-5.926-1.117-15.077-1.834-25.354-1.834-10.278 0-19.429.717-25.354 1.834" fill="#3cc1a7"/><g fill="none" stroke-linecap="round" stroke-linejoin="round" stroke-miterlimit="10"><path clip-path="url(#a)" d="m127.32 43.916c1.656-2.836 6.649-3.97 9.146-4.002 3.353-.044 6.072 2.718 6.072 6.072 0 3.353-2.72 6.072-6.072 6.072 0 0-8.11.506-9.146 4.324-1.034 3.82 1.662 3.924 1.662 3.924" stroke="#3cc1a7"/><path clip-path="url(#a)" d="m135.715 42.414c1.974-.026 3.572 1.599 3.572 3.571 0 1.974-1.599 3.572-3.572 3.572" stroke="#3cc1a7"/><path clip-path="url(#a)" d="m122.862 57.921s3.302 0 2.584 2.386" stroke="#3cc1a7"/><path clip-path="url(#a)" d="m108.536 13.767s-.545-7.08-10.711-7.806" stroke="#3cc1a7"/><path clip-path="url(#a)" d="m72.827 3.783s-15.708.182-19.499 2.178" stroke="#3cc1a7"/><path clip-path="url(#a)" d="m70.19.515s-9.249-.182-11.23.726" stroke="#3cc1a7"/><path clip-path="url(#a)" d="m27.027 12.859s-7.784 2.541-8.884 6.172" stroke="#3cc1a7"/><path clip-path="url(#a)" d="m18.998 11.952s-3.044 2.389-3.77 4.553" stroke="#3cc1a7"/></g></svg>