<svg enable-background="new 0 0 269.3 100" viewBox="0 0 269.3 100" xmlns="http://www.w3.org/2000/svg"><path d="m264.8 72.7h-64c-2.4 0-4.4-2-4.4-4.5s2-4.5 4.4-4.5h57.1c2.5 0 4.5-2 4.5-4.5s-2-4.5-4.5-4.5h-99.6c-2.4 0-4.4-2-4.4-4.5s2-4.5 4.4-4.5h75c2.5 0 4.5-2 4.5-4.5s-2-4.5-4.5-4.5h-15.4c-2.4 0-4.4-2-4.4-4.5s2-4.5 4.4-4.5h46.9c2.5 0 4.5-2 4.5-4.5s-2-4.5-4.5-4.5h-102.1c-2.4 0-4.4-2-4.4-4.5s2-4.5 4.4-4.5h56.9c2.5 0 4.5-2 4.5-4.5s-2-4.6-4.5-4.6h-161.7c-2.5 0-4.5 2-4.5 4.5s2 4.5 4.5 4.5h43.2c2.4 0 4.4 2 4.4 4.5s-2 4.5-4.4 4.5h-90.2c-2.5 0-4.5 2-4.5 4.5s2 4.5 4.5 4.5h48.9c2.4 0 4.4 2 4.4 4.5s-2 4.5-4.4 4.5h-55.3c-2.5 0-4.5 2-4.5 4.5s2 4.5 4.5 4.5h89.1c2.4 0 4.4 2 4.4 4.5s-2 4.5-4.4 4.5h-35.7c-2.5 0-4.5 2-4.5 4.5s2 4.5 4.5 4.5h21.9c2.4 0 4.4 2 4.4 4.5s-2 4.5-4.4 4.5h-32.4c-2.5 0-4.5 2-4.5 4.5s2 4.5 4.5 4.5h67.1c2.4 0 4.4 2 4.4 4.5s-2 4.5-4.4 4.5h-34.7c-2.5 0-4.5 2-4.5 4.5s2 4.5 4.5 4.5h153.5c2.5 0 4.5-2 4.5-4.5s-2-4.5-4.5-4.5h-24.6c-2.4 0-4.4-2-4.4-4.5s2-4.5 4.4-4.5h56.1c2.5 0 4.5-2 4.5-4.5s-2-4.4-4.5-4.4" fill="#0dd3c5"/><path d="m127.6 36.2c-4.5 2.6-11.4 2.9-15.3.6s-3.4-6.2 1.1-8.8 11.4-2.9 15.3-.6c3.9 2.2 3.4 6.2-1.1 8.8" fill="#fff"/><path d="m127.6 36.2c-4.5 2.6-11.4 2.9-15.3.6s-3.4-6.2 1.1-8.8 11.4-2.9 15.3-.6c3.9 2.2 3.4 6.2-1.1 8.8z" fill="none" stroke="#760fc3" stroke-linejoin="round" stroke-width=".6779"/><path d="m126.2 34.1c-3.7 2.1-9.2 2.2-12.4.4s-2.8-5 .8-7.1c3.7-2.1 9.2-2.2 12.4-.4 3.3 1.9 2.9 5.1-.8 7.1" fill="#fff"/><path d="m126.2 34.1c-3.7 2.1-9.2 2.2-12.4.4s-2.8-5 .8-7.1c3.7-2.1 9.2-2.2 12.4-.4 3.3 1.9 2.9 5.1-.8 7.1z" fill="none" stroke="#760fc3" stroke-linejoin="round" stroke-width=".6779"/><path d="m114.1 28.5c0-3.4 2.8-5.5 6.2-5.5s6.2 2.1 6.2 5.5v-.3c0 1-.7 2.1-2.1 2.9-2.6 1.5-6.5 1.6-8.7.4-.9-.5-1.4-1.2-1.5-1.9-.1 0-.1-1.1-.1-1.1z" fill="#fff"/><path d="m114.1 28.5c0-3.4 2.8-5.5 6.2-5.5s6.2 2.1 6.2 5.5v-.3c0 1-.7 2.1-2.1 2.9-2.6 1.5-6.5 1.6-8.7.4-.9-.5-1.4-1.2-1.5-1.9-.1 0-.1-1.1-.1-1.1z" fill="none" stroke="#760fc3" stroke-width=".6779"/><path d="m116 30.4v-2.1c0-1.3.5-2.4 1.4-3.1.8-.7 1.9-1.1 3.1-1.1-.2 0-.3 0-.5 0-1.4 0-2.6.4-3.5 1.2s-1.4 1.9-1.4 3.1v.9c.1.4.4.8.9 1.1z" fill="#760fc3"/><path d="m114.8 30.9-5.2 2.8s1.2 2.4 2 2.8l3.9-4.9z" fill="#760fc3"/><path d="m112.8 37 3.3-5.2" fill="none" stroke="#760fc3" stroke-width=".6779"/><path d="m127.9 27.4v-9.3" fill="none" stroke="#760fc3" stroke-width=".6779"/><path d="m129.2 29.2v-4.6" fill="none" stroke="#760fc3" stroke-width=".6779"/><path d="m124.7 27.6c0 .3-.2.5-.5.5s-.5-.2-.5-.5.2-.5.5-.5c.2 0 .5.2.5.5" fill="#760fc3"/><path d="m118.7 29.1c0 .3-.2.5-.5.5s-.5-.2-.5-.5.2-.5.5-.5.5.2.5.5" fill="#760fc3"/><path d="m166.3 48.3s-2.4 3-8.2 3.3" fill="none" stroke="#760fc3" stroke-width=".6779"/><path d="m163.2 47.5c4.5 2.6 11.4 2.9 15.3.6s3.4-6.2-1.1-8.8-11.4-2.9-15.3-.6c-4 2.2-3.5 6.2 1.1 8.8" fill="#fff"/><path d="m163.2 47.5c4.5 2.6 11.4 2.9 15.3.6s3.4-6.2-1.1-8.8-11.4-2.9-15.3-.6c-4 2.2-3.5 6.2 1.1 8.8z" fill="none" stroke="#760fc3" stroke-linejoin="round" stroke-width=".6779"/><path d="m164.5 45.4c3.7 2.1 9.2 2.2 12.4.4s2.8-5-.8-7.1c-3.7-2.1-9.2-2.2-12.4-.4s-2.8 5 .8 7.1" fill="#fff"/><path d="m164.5 45.4c3.7 2.1 9.2 2.2 12.4.4s2.8-5-.8-7.1c-3.7-2.1-9.2-2.2-12.4-.4s-2.8 5 .8 7.1z" fill="none" stroke="#760fc3" stroke-linejoin="round" stroke-width=".6779"/><path d="m164.8 41.1-5.2 2.8s1.2 2.4 2 2.8l3.9-4.9z" fill="#760fc3"/><path d="m162.7 47.2 3.3-5.1" fill="none" stroke="#760fc3" stroke-width=".6779"/><path d="m172.2 37.7v-9.3" fill="none" stroke="#760fc3" stroke-linejoin="round" stroke-width=".6779"/><path d="m170.4 37.9v-4.6" fill="none" stroke="#760fc3" stroke-linejoin="round" stroke-width=".6779"/><path d="m176.6 39.8c0-3.4-2.8-5.5-6.2-5.5s-6.2 2.1-6.2 5.5v-.3c0 1 .7 2.1 2.1 2.9 2.6 1.5 6.5 1.6 8.7.4.9-.5 1.4-1.2 1.5-1.9z" fill="#fff"/><path d="m176.6 39.8c0-3.4-2.8-5.5-6.2-5.5s-6.2 2.1-6.2 5.5v-.3c0 1 .7 2.1 2.1 2.9 2.6 1.5 6.5 1.6 8.7.4.9-.5 1.4-1.2 1.5-1.9z" fill="none" stroke="#760fc3" stroke-width=".6779"/><path d="m174.7 41.9v-2.1c0-1.3-.5-2.4-1.4-3.1-.8-.7-1.9-1.1-3.1-1.1h.5c1.4 0 2.6.4 3.5 1.2s1.4 1.9 1.4 3.1v.9c0 .4-.3.8-.9 1.1z" fill="#760fc3"/><path d="m166.2 39.1c0 .3.2.5.5.5s.5-.2.5-.5-.2-.5-.5-.5c-.2 0-.5.2-.5.5" fill="#760fc3"/><path d="m160.4 45.5s-1.2 2.4-4.7 2.6" fill="none" stroke="#760fc3" stroke-width=".6779"/><path d="m116.7 38.4s.4 5.2 9 5.6" fill="none" stroke="#760fc3" stroke-width=".6779"/><path d="m128.9 35.4s1.8 1.3 4.3.9" fill="none" stroke="#760fc3" stroke-width=".6779"/><path d="m122.8 44.7 12.9-14.2 18.4 3.9-12.8 14.3z" fill="#fff"/><path d="m122.8 44.7 12.9-14.2 18.4 3.9-12.8 14.3z" fill="none" stroke="#760fc3" stroke-linejoin="round" stroke-width=".6779"/><path d="m159.2 50.1-12.5 14-5.2-15.7 12.6-14z" fill="#760fc3"/><path d="m159.2 50.1-12.5 14-5.2-15.7 12.6-14z" fill="none" stroke="#760fc3" stroke-linejoin="round" stroke-width=".6779"/><path d="m128 60.4-5.1-15.6 18.4 3.9 5.2 15.7z" fill="#fff"/><g fill="none"><path d="m128 60.4-5.1-15.6 18.4 3.9 5.2 15.7z" stroke="#760fc3" stroke-linejoin="round" stroke-width=".6779"/><path d="m148.1 33.3-12.6 14"/><path d="m148.1 33.3-12.6 14" stroke="#760fc3" stroke-linejoin="round" stroke-width=".6779"/><path d="m141.3 31.8-12.5 14.1"/><path d="m141.3 31.8-12.5 14.1" stroke="#760fc3" stroke-linejoin="round" stroke-width=".6779"/><path d="m126.3 55.2 18.4 3.9"/><path d="m126.3 55.2 18.4 3.9" stroke="#760fc3" stroke-linejoin="round" stroke-width=".6779"/><path d="m124.4 49.6 18.4 3.9"/><path d="m124.4 49.6 18.4 3.9" stroke="#760fc3" stroke-linejoin="round" stroke-width=".6779"/></g><path d="m63 50.8 16.7-9.5 16.3 9.5-16.6 9.6z" fill="#fff"/><path d="m63 50.8 16.7-9.5 16.3 9.5-16.6 9.6z" fill="none" stroke="#760fc3" stroke-linejoin="round" stroke-width=".6779"/><path d="m96 67.3-16.3 9.3v-16.4l16.3-9.4z" fill="#760fc3"/><path d="m96 67.3-16.3 9.3v-16.4l16.3-9.4z" fill="none" stroke="#760fc3" stroke-linejoin="round" stroke-width=".6779"/><path d="m63 67.3.1-16.4 16.3 9.5v16.5z" fill="#fff"/><path d="m63 67.3.1-16.4 16.3 9.5v16.5z" fill="none" stroke="#760fc3" stroke-linejoin="round" stroke-width=".6779"/><path d="m68.6 47.6 16.3 9.4" fill="none"/><path d="m68.6 47.6 16.3 9.4" fill="none" stroke="#760fc3" stroke-linejoin="round" stroke-width=".6779"/><path d="m74.5 44.3 16.3 9.4" fill="none"/><path d="m74.5 44.3 16.3 9.4" fill="none" stroke="#760fc3" stroke-linejoin="round" stroke-width=".6779"/><path d="m67.8 53.7v16.5" fill="none" stroke="#760fc3" stroke-linejoin="round" stroke-width=".6779"/><path d="m73.8 57.2v16.2" fill="none" stroke="#760fc3" stroke-linejoin="round" stroke-width=".6779"/><path d="m194.8 50.8 16.6-9.5 16.3 9.5-16.6 9.6z" fill="#fff"/><path d="m194.8 50.8 16.6-9.5 16.3 9.5-16.6 9.6z" fill="none" stroke="#760fc3" stroke-linejoin="round" stroke-width=".6779"/><path d="m227.7 67.3-16.3 9.3v-16.4l16.3-9.4z" fill="#760fc3"/><path d="m227.7 67.3-16.3 9.3v-16.4l16.3-9.4z" fill="none" stroke="#760fc3" stroke-linejoin="round" stroke-width=".6779"/><path d="m194.8 67.3v-16.4l16.3 9.5v16.5z" fill="#fff"/><path d="m194.8 67.3v-16.4l16.3 9.5v16.5z" fill="none" stroke="#760fc3" stroke-linejoin="round" stroke-width=".6779"/><path d="m200.3 47.6 16.4 9.4" fill="none"/><path d="m200.3 47.6 16.4 9.4" fill="none" stroke="#760fc3" stroke-linejoin="round" stroke-width=".6779"/><path d="m206.3 44.3 16.3 9.4" fill="none"/><path d="m206.3 44.3 16.3 9.4" fill="none" stroke="#760fc3" stroke-linejoin="round" stroke-width=".6779"/><path d="m199.6 53.7v16.5" fill="none" stroke="#760fc3" stroke-linejoin="round" stroke-width=".6779"/><path d="m205.5 57.2v16.2" fill="none" stroke="#760fc3" stroke-linejoin="round" stroke-width=".6779"/></svg>