<svg enable-background="new 0 0 577 669.4" viewBox="0 0 577 669.4" xmlns="http://www.w3.org/2000/svg"><g fill="#ccc"><path d="m390.8 335.3-8.9-.4 4-79c.2-4.2-1.1-8.3-4-11.4s-6.7-4.9-10.7-5.1l-30.2-1.6.4-8.9 30.2 1.6c6.5.4 12.5 3.1 17 8.1 4.5 4.9 6.7 11.2 6.3 17.7z"/><path d="m73.4 321.5-8.9-.4 4.3-81.7c.7-13.6 12.3-23.9 26-23.3l31.3 1.6-.4 8.9-31.3-1.6c-8.5-.4-16.1 6.3-16.6 14.8z"/><path d="m419 508.5h-2.2l-65.1-3.4.4-8.9 63.1 3.4c1.6-1.6 4.5-4 8.1-5.6 2.2-.9 4.7-1.3 6.7-1.6.2-124.2-94.9-216.8-96-217.7l6.3-6.5c.9.9 100.7 97.5 98.7 227.5 0 4.7-4.9 5.1-7.4 5.6-1.6.2-3.4.4-4.7.9-3.6 1.6-6 4.7-6 4.7z"/><path d="m409 382.3c-47 .7-63.3 52.3-63.3 52.3l5.1 31.8s19.2-35.8 73.8-36.2z"/><path d="m356.4 538.9c-.4 0-.7 0-1.1 0l.4-8.9c5.6.2 10.3-3.8 10.5-8.9l1.1-19.5 8.9.4-1.1 19.5c-.1 9.6-8.6 17.4-18.7 17.4z"/><path d="m395.4 505.9h14.5v9h-14.5z" transform="matrix(.06979728 -.9976 .9976 .06979728 -134.6047 876.461)"/><path d="m386.6 540.5c-10.3-.4-18.6-9.6-17.9-19.9l.9-19 8.9.4-.9 19c-.2 5.4 4 10.3 9.6 10.5z"/><path d="m341.2 188.1c-.4 0-1.1 0-1.6 0l.4-8.9c12.3.7 22.8-8.7 23.5-21s-8.7-22.8-21-23.5l.4-8.9c17.2.9 30.4 15.7 29.5 32.9-.8 16.5-14.7 29.4-31.2 29.4z"/><path d="m129.3 177c-17.2-.9-30.4-15.7-29.5-32.9.4-8.3 4-16.1 10.3-21.5 6.3-5.6 14.1-8.5 22.6-8.1l-.4 8.9c-5.8-.2-11.6 1.8-16.1 5.6-4.5 4-6.9 9.4-7.4 15.4-.7 12.3 8.7 22.8 21 23.5z"/><path d="m256.6 280.5c-8.7 0-17.4-.2-26.4-.7-50.8-2.7-104.7-15-105.1-15l-3.6-.9 10.3-196 218.3 11.4-10.3 196-3.6.4c-.8.1-37.1 4.8-79.6 4.8zm-125.9-23.7c13 2.7 57.5 11.9 100 14.1 44.1 2.2 87.7-2.2 100.4-3.6l9.4-179.4-200.4-10.5z"/><path d="m220.4 52.6h42.1v8.9h-42.1z" transform="matrix(.05230164 -.9986 .9986 .05230164 171.8327 295.1575)"/><path d="m262.2 41.6-39.6-2 2-39.6 39.6 2zm-30.2-10.5 21.7 1.1 1.1-21.7-21.7-1.1z"/><path d="m87.9 491.3-86.8-4.5.2-4.5c7-134.4 121.5-224.4 122.7-225.3l5.4 7.2c-1.1.9-109.8 86.4-118.8 214.3l77.9 4z"/><path d="m349.7 532.9c-2.7-66.2-13.9-141.4-14.5-145.4-1.3-5.6-19.5-85.7 13.6-102.7l4 8.1c-22.6 11.6-14.1 70.9-8.9 92.6v.4c.2.7 11.9 78.5 14.5 146.8z"/><path d="m340.3 419c-34.7-48.1-48.1-87.9-39.6-118.1 7.2-25.1 26.8-33.6 27.5-34l3.6 8.3-1.8-4 1.8 4c-.7.2-16.8 7.4-22.6 28.4-9.4 34.2 15.7 78.7 38.3 110.3z"/><path d="m110.1 407.2-6.7-6c25.7-28.9 55.3-70.7 49.4-105.6-3.6-21.5-18.8-30.2-19.5-30.6l4.2-7.8c.9.4 19.5 11 23.9 36.7 5.5 30.7-11.7 69-51.3 113.3z"/><path d="m213.6 373.9h8.9v266.2h-8.9z" transform="matrix(.05200244 -.9986 .9986 .05200244 -299.5009 698.4171)"/><path d="m43.4 363.3c46.5 5.6 57.5 58.6 57.5 58.6l-8.5 31.1s-15.4-37.6-69.8-43.6z"/><circle cx="192.9" cy="169.1" r="9.6"/><circle cx="300.2" cy="174.7" r="9.6"/><path d="m307.8 516.1-135.6-7.2 7.8-148.3 135.6 7.2zm-126.1-15.4 117.7 6 6.7-130.4-117.7-6z"/><circle cx="213.2" cy="399.8" r="12.5"/><circle cx="211.2" cy="440" r="12.5"/><path d="m210.3 418.6h62.6v8.9h-62.6z" transform="matrix(.05230164 -.9986 .9986 .05230164 -193.4408 642.2501)"/><path d="m232.7 419.7h62.6v8.9h-62.6z" transform="matrix(.05230164 -.9986 .9986 .05230164 -173.3553 665.6544)"/><path d="m255.1 421h62.6v8.9h-62.6z" transform="matrix(.05230164 -.9986 .9986 .05230164 -153.5036 689.2589)"/><path d="m429.3 663.3-244.5-2.5c-30-.2-70.5-8.9-92.6-47.9-12.8-22.6-13.4-44.7-13.4-47-.7-9.6-.4-26.6-.2-36.9l.2-4.2 280.1 3.6-.2 8.9-271.4-3.3c-.2 10.1-.2 23.9.2 31.8v.2c0 3.6 1.8 85 97.3 86.1l244.5 2.5z"/><path d="m87.3 529.8-8.9-1.1c7.8-68.9 30.6-154.4 30.9-155.3v-.2c7.4-21.3 21.7-79.4.4-93.3l4.9-7.6c13.6 8.9 18.1 29.3 13.6 60.6-3.1 21.7-9.6 40.7-10.3 42.7-1.1 4.5-23 87.3-30.6 154.2z"/><path d="m80.6 524.4c-10.5-.4-18.6-9.2-18.1-19.5l1.1-19.5 8.9.4-1.1 19.5c-.2 5.1 4 9.8 9.6 10.1z"/><path d="m50.4 522.8c-.2 0-.7 0-.9 0-4.9-.2-9.6-2.5-13-6-3.6-3.6-5.4-8.5-4.9-13.4l1.1-19.5 8.9.4-1.1 19.5c-.2 2.5.9 4.9 2.7 6.9s4.3 3.1 6.9 3.1c5.4.2 10.3-4 10.5-9.4l.9-19 8.9.4-.9 19c-.6 10.2-9.3 18-19.1 18z"/><path d="m19 521.3c-.2 0-.7 0-.9 0-10.5-.5-18.5-9.2-18.1-19.5l1.1-19.5 8.9.4-1 19.5c-.2 5.1 4 9.8 9.6 10.1s10.3-4 10.5-9.4l.9-19 8.9.4-.9 19c-.4 9.9-9.1 18-19 18z"/><path d="m335.4 227.3c-16.3-10.3-56.6-15-116.6-13.2-45.6 1.3-86.8 5.8-87.2 6l-.9-8.9c6.7-.7 166.9-18.3 209.6 8.5z"/><path d="m364 600.2c-70.5-44-205.4-38.2-206.7-38.2l-.4-8.9c5.6-.2 139.1-5.8 211.9 39.6z"/><path d="m390 543.2c-61.5-8.3-125.5-6.9-126.2-6.9l-.2-8.9c.7 0 65.3-1.6 127.7 6.9z"/><path d="m478.5 584.3h-8.9c.9-91.5 60.9-113.4 63.5-114.3l2.9 8.5c-2.2.7-56.6 20.8-57.5 105.8z"/><path d="m533.1 640.9c-20.8 0-31.5-44.1-31.1-85.9.2-22.4 3.4-43.6 8.9-59.3 6-17.4 14.3-27.1 23.7-27.1h.2c9.6 2.2 17.7 10.1 23.3 27.7 5.1 15.9 7.8 36.7 7.6 59.1-.4 41.7-12 85.5-32.6 85.5zm1.4-163.3c-4.9 0-11 8.5-15.2 21.3-5.1 15-8.1 34.7-8.3 55.9-.4 47.9 12.5 77.2 22.1 77.2 9.6 0 23.3-28.6 23.7-76.5l4.5.2h-4.5c.2-21.3-2.2-41.8-7.2-56.8-4.2-12.8-10-21.3-15.1-21.3.2 0 .2 0 0 0z"/><path d="m528.6 550.4h8.9v53.7h-8.9z" transform="matrix(.0101005 -.9999 .9999 .0101005 -49.4946 1104.4513)"/><path d="m487.7 596.9h8.9v80.5h-8.9z" transform="matrix(.0101005 -.9999 .9999 .0101005 -149.9595 1122.8652)"/><path d="m234.2 562.4s3.4 30.2 33.3 36.9c30.2 6.7 45.6-2 65.1-19.7 5-1.7-56.1-28.1-98.4-17.2z"/><path d="m369.6 619-8.9-.4c4.7-90.8 61.5-124.4 64-125.7l4.5 7.8c-.5.2-55.1 32.6-59.6 118.3z"/><path d="m430 663.3c-9.6 0-17.7-9.4-23.5-27.3-5.1-15.9-7.8-36.9-7.6-59.3.4-41.6 12.1-85.9 32.7-85.9h.2c9.6 0 17.7 9.4 23.3 27.3 5.1 15.9 7.8 36.9 7.6 59.3-.5 41.8-12.1 85.9-32.7 85.9zm1.3-163.3c-9.6 0-23.3 29.3-23.7 77-.2 21.3 2.2 41.4 7.2 56.4 4.2 13 9.8 21 15 21 9.6 0 23.3-29.3 23.7-77h4.5-4.5c.2-21.3-2.2-41.4-7.2-56.4-4-12.9-9.8-21-15-21 .3 0 .3 0 0 0z"/><path d="m490.8 637.1-36.7-.4s-13.9 22.1-22.1 22.1h-.4s-143.2-1.3-244.5-2.5c-29.3-.2-50.1-8.1-64.9-18.8-47.7 3.4-77.2 8.1-77.2 13.2 0 10.3 119 18.6 266 18.6 146.8 0 266-8.3 266-18.6 0-5.3-33.4-10.2-86.2-13.6z"/><path d="m425.5 571.6h8.9v53.7h-8.9z" transform="matrix(.0101005 -.9999 .9999 .0101005 -172.8325 1022.3596)"/><path d="m363.8 535.8s.4 18.8 15.4 24.4l13.4-21z"/><path d="m472.5 574.7c-4.5-2.7-12.5-6.9-15.4-7.6l2-8.7c4.9 1.1 15.7 7.4 17.9 8.7z"/></g></svg>