<svg enable-background="new 0 0 876.5 531.3" viewBox="0 0 876.5 531.3" xmlns="http://www.w3.org/2000/svg"><path d="m572.8 131.4c-26.8-2.1-99.9-15.6-108.6 25.2s7.2 79.2 49 79.6 90.6 4 89.4-56.8c-.8-37.9-18.3-47.1-29.8-48z" fill="#760fc3"/><path d="m584.8 221.9s4.8 17.4 20.9 22.3c0 0-32 1.2-39.6-18.3z" fill="#760fc3"/><path d="m853.2 211h-89c-9.8 0-17.1-7.2-17.1-16s7.2-16 17.1-16h30.6c12.9 0 23.3-8.1 23.3-21s-10.4-21-23.3-21h-36.6c-6.6 0-11-10.7-11-17.5 0-8.8 7.2-18.5 17.1-18.5h23.5c12.9 0 23.3-10.6 23.3-23.5s-10.5-23.5-23.3-23.5h-95.9c-6.9 0-11.9-4.4-11.9-10.5s5-10.5 11.8-10.5h12.7c8.9 0 16.1-7.6 16.1-16.5s-7.2-16.5-16.1-16.5h-253.1c-8.9 0-16.1 7.6-16.1 16.5s7.2 16.5 16.1 16.5h12.6c6.8 0 11.8 4.4 11.8 10.5s-5 10.5-11.8 10.5h-242.6c-12.9 0-23.3 10.6-23.3 23.5s10.4 23.5 23.3 23.5h69c9.8 0 17.1 9.6 17.1 18.5 0 6.9-4.4 17.5-11 17.5h-273.2c-12.9 0-23.3 8.1-23.3 21s10.4 21 23.3 21h76.8c9.8 0 17.1 7.2 17.1 16s-7.2 16-17.1 16h-18.4c-12.9 0-23.3 11.1-23.3 24s10.4 24 23.3 24h153.8c6.6 0 11 5.2 11 12 0 8.8-7.2 13-17.1 13h-18.3c-12.9 0-23.3 10.6-23.3 23.5s10.4 23.5 23.3 23.5h148.7c-8.9 0-16.1 7.6-16.1 16.5s7.3 16.5 16.2 16.5h103.4c8.9 0 16.1-7.6 16.1-16.5s-7.2-16.5-16.1-16.5h113.8c12.9 0 23.3-10.6 23.3-23.5s-10.4-23.5-23.3-23.5h-18.3c-9.8 0-17.1-4.1-17.1-13 0-6.9 4.4-12 11-12h300.5c12.9 0 23.3-11.1 23.3-24s-10.4-24-23.3-24z" fill="#0dd3c5" opacity=".2"/><path d="m709.8 481.7h7.2v49.4h-7.2z" fill="#492f5c"/><path d="m382.5 373.3h2.6c5 0 9-5 9-10.9v-112.8c0-5.9-4-10.3-9-10.3h-124c-5 0-9 4.4-9 10.3v112.8c0 5.9 4 10.9 9 10.9z" fill="#0a776c"/><path d="m254.1 363.3v9.1c0 3.6 2.8 6.9 6.4 6.9h2.6v-16z" fill="#0ea092"/><path d="m253.1 363.3v8.9c0 3.6-3.4 6.6-7 6.6s-7-2.8-7-6.4v-9.1z" fill="#0ea092"/><path d="m238.1 363.3v8.9c0 3.6-3.4 6.6-7 6.6s-7-2.8-7-6.4v-9.1z" fill="#0ea092"/><path d="m388 394.4c0-32.9-11-86.7-11.1-87.2v-.2c-2.8-9.7-8.1-36 1.8-41.7l2.2-1.3-10.4-10-.5.1c-.5.1-51.5 9.7-92.5 0l-1.2-.3-8.1 10.3 2 1.2c9.9 5.7 4.7 32 1.9 41.7-.6 2.2-13.5 54.4-11.1 87.3 3.7 50.4-18.1 74.8-18.3 75.1l-.5.8-2.6 55.2h2.1c7.6 0 13.9-2.9 18.8-7.8 9-9.1 10.6-24.1 10.8-29.4 20.5-.9 38-16.6 50.6-45.5 2.3-5.3 4.3-10.7 6-15.8 11.1 30.1-12.8 48.4-13.9 49.2l-.8.6v54.7h2c10.7 0 19.4-6.8 25.2-19.5 3.2-7.1 4.7-14 5.3-17.2 6.9-.4 13.2-3.4 18.6-8.8 23.7-24 23.7-88.8 23.7-91.5z" fill="#0dd3c5"/><path d="m305.1 476.3v55h9v-2.2-2-46.8-1.9-2.1z" fill="#0ea092"/><path d="m234 468.9-1.8 55.5 9 .3.1-3.5 1.6-50 .1-2z" fill="#0ea092"/><path d="m262.5 363.3h-38.2c0-63 50.6-106.7 50.6-106.7l4.3 21z" fill="#0dd3c5"/><path d="m274.8 256.6s-50.6 43.7-50.6 106.7h9c0-48 29-84.2 43.1-99.3z" fill="#0ea092" opacity=".5"/><path d="m264.5 343.4 3.3-14.9s-6.3-24.1-27.7-26.3c-3.6 6.8-6.8 14.3-9.5 22.3 25.7 1.6 33.9 18.9 33.9 18.9z" fill="#0ea092"/><path d="m394 363.3v9.1c0 3.6-2.8 6.9-6.4 6.9h-2.6v-16z" fill="#0ea092"/><path d="m395 363.3v8.9c0 3.6 3.4 6.6 7 6.6s7-2.8 7-6.4v-9.1z" fill="#0ea092"/><path d="m410 363.3v8.9c0 3.6 3.4 6.6 7 6.6s7-2.8 7-6.4v-9.1z" fill="#0ea092"/><path d="m385.6 363.3h38.2c0-63-50.6-106.7-50.6-106.7l-4.3 21z" fill="#0dd3c5"/><path d="m373.2 256.6s50.6 43.7 50.6 106.7h-9c0-48-29-84.2-43.1-99.3z" fill="#0ea092" opacity=".5"/><path d="m383.6 343.4-3.3-14.9s6.3-24.1 27.7-26.3c3.6 6.8 6.8 14.3 9.5 22.3-25.7 1.6-33.9 18.9-33.9 18.9z" fill="#0ea092"/><path d="m386 363.3h-124.2c-.6 6-1.1 12-1.3 17h127.1c-.3-5-.9-11-1.6-17z" fill="#0ea092"/><path d="m359.2 455.2c-3.8 10.6-.4 21.9 7.5 27.7 9-10.9 14.1-27.9 17.1-44.1-10.1-1.3-20.6 5.3-24.6 16.4z" fill="#0ea092"/><path d="m321.8 442.5v-.1c-9.3-3.1-20.4.8-26.8 10-6 8.8-6 19.8-.7 27.4 10.6-7.5 19.9-20 27.5-37.3z" fill="#0ea092"/><path d="m242.5 483.9s33.4-27.4 33.4-89.7c0-32.9 5.5-65.1 11.1-87.3 8.9-35.5-5.7-51.9-9.5-52.8l-1.2-.3-8.1 10.3 2 1.2c9.9 5.7 4.7 32 1.9 41.7-.6 2.2-13.5 54.4-11.1 87.3 3.7 50.4-18.1 74.9-18.3 75.1l-.5.7z" fill="#0ea092" opacity=".5"/><path d="m378.8 262.1-8.3-8-.5.1c-.5.1-47 8.8-86.9 1.2v6.4l1.4.3c.2 0 24.5 4.3 47.2 4.3 23.7 0 46.7-4.3 46.9-4.3z" fill="#0ea092" opacity=".5"/><path d="m371.4 190.9c-7.7 0-14 6.3-14 14s6.3 14 14 14 14-6.3 14-14c-.1-7.7-6.3-14-14-14z" fill="#0ea092"/><path d="m371.4 190.9c-4.9 0-9.2 2.5-11.7 6.3 2.2-1.5 4.8-2.3 7.7-2.3 7.7 0 14 6.3 14 14 0 2.8-.9 5.5-2.3 7.7 3.8-2.5 6.3-6.8 6.3-11.7-.1-7.7-6.3-14-14-14z" fill="#fff" opacity=".2"/><path d="m277.4 218.8c7.7 0 14-6.3 14-14s-6.3-14-14-14-14 6.3-14 14c0 7.8 6.3 14 14 14z" fill="#0ea092"/><path d="m276.1 170.3v87.5l1.4.3c.2 0 24.5 4.3 47.2 4.3 23.7 0 46.7-4.3 46.9-4.3l1.4-.3v-87.5z" fill="#0dd3c5"/><path d="m322.1 153.3h4v17h-4z" fill="#0ea092"/><path d="m316.1 137.3h17v18h-17z" fill="#0ea092"/><path d="m276.1 230.3h97v4h-97z" fill="#0a776c"/><path d="m270.2 314.8s17.4-8.5 20.5-28.3-11.8-32.4-14.5-32.6l-8.5 9.6s15.7 11 2.5 51.3z" fill="#0ea092"/><path d="m272.7 313.3c13-40.8-2.9-52.1-2.9-52.1l6.5-7.3-8.5 9.6s15.7 11.1 2.4 51.3c0 0 .9-.5 2.5-1.5z" fill="#0a776c"/><path d="m276.1 170.3h8v92h-8z" fill="#0ea092" opacity=".5"/><g fill="#0ea092" opacity=".5"><path d="m335 394.9c-.7 5.5-2.9 19.5-7.3 32 10.6 29-11.2 47-13.7 49v8.1s46.8-32.5 21.9-89.1c-.1-.5-.8-.5-.9 0z"/><path d="m325.4 433.6c.5-1.4 1-2.8 1.5-4.2-.3.7-.5 1.4-.8 2.1z"/></g><path d="m388 394.4c0-32.9-11-86.7-11.1-87.2v-.2c-2.8-9.7-8.1-36 1.8-41.7l2.2-1.3-6-5-2.2 1.3c-9.9 5.7-4.6 32-1.8 41.7v.2c.1.5 11.1 54.3 11.1 87.2 0 2.7 0 67.5-23.9 91.4-5.4 5.4-11.6 8.3-18.6 8.8-.6 3.1-2 10-5.3 17.1-5.1 11.1-12.4 17.6-21.2 19v5.6h2c10.7 0 19.4-6.8 25.2-19.5 3.2-7.1 4.7-14 5.3-17.2 6.9-.4 13.2-3.4 18.6-8.8 23.9-23.9 23.9-88.7 23.9-91.4z" fill="#fff" opacity=".2"/><path d="m378.4 314.9s-14.2-9.6-17.3-29.4 9.5-28.5 12.2-28.7l7.5 7.3c.1-.1-12.4 3.7-2.4 50.8z" fill="#0ea092"/><path d="m363.2 285.5c-2.7-17.3 6.5-26.1 10.7-28.2l-.5-.5c-2.7.3-15.3 8.9-12.2 28.7s17.3 29.4 17.3 29.4c-.2-.7-.3-1.3-.5-2-4.3-3.8-12.6-12.8-14.8-27.4z" fill="#0a776c"/><path d="m261.8 363.2c-.6 6-1.1 12.1-1.3 17.1h15.7l1.2-17z" fill="#0a776c"/><circle cx="315.5" cy="310.1" fill="#0a776c" r="3.8"/><circle cx="315.5" cy="324.9" fill="#0a776c" r="3.8"/><path d="m325.1 306.3h4v25h-4z" fill="#0a776c"/><path d="m334.1 306.3h4v25h-4z" fill="#0a776c"/><path d="m343.1 306.3h4v25h-4z" fill="#0a776c"/><path d="m301.2 294.8 4.4 6.5h46.6l3.6-6.4z" fill="#fff" opacity=".2"/><path d="m306.1 300.8v47.3l-5 3v-56.5z" fill="#0ea092"/><path d="m439.5 83.7c33-2.5 123.1-19.2 133.8 31s-8.8 97.6-60.4 98.1-111.7 4.9-110.1-70c1-46.7 22.6-58.1 36.7-59.1z" fill="#0dd3c5"/><path d="m424.7 195.1s-5.9 21.4-25.7 27.5c0 0 39.5 1.4 48.8-22.6z" fill="#0dd3c5"/><circle cx="316.1" cy="206.8" fill="#0a776c" r="4.3"/><circle cx="359.7" cy="206.8" fill="#0a776c" r="4.3"/><path d="m360.7 232.1c0 5.8-9.3 10.4-20.8 10.4s-20.8-4.7-20.8-10.4" fill="#0a776c"/><g fill="none"><path d="m434.3 124.2h49.3" stroke="#fff" stroke-linecap="round" stroke-miterlimit="10" stroke-width="7"/><path d="m474.2 140.3h49.3" stroke="#fff" stroke-linecap="round" stroke-miterlimit="10" stroke-width="7"/><path d="m457.1 157.3h49.3" stroke="#fff" stroke-linecap="round" stroke-miterlimit="10" stroke-width="7"/><path d="m522 124.2h24.7" stroke="#fff" stroke-linecap="round" stroke-miterlimit="10" stroke-width="7"/><path d="m434.3 140.3h24.6" stroke="#fff" stroke-linecap="round" stroke-miterlimit="10" stroke-width="7"/><path d="m521 157.3h24.7" stroke="#fff" stroke-linecap="round" stroke-miterlimit="10" stroke-width="7"/><path d="m499.4 124.2h7" stroke="#fff" stroke-linecap="round" stroke-miterlimit="10" stroke-width="7"/><path d="m434.3 157.3h7" stroke="#fff" stroke-linecap="round" stroke-miterlimit="10" stroke-width="7"/><path d="m539.2 140.3h7" stroke="#fff" stroke-linecap="round" stroke-miterlimit="10" stroke-width="7"/></g><path d="m647.6 269.2h29.6c15.5 0 28.1-12.6 28.1-28.1v-58.1c0-15.5-12.6-28.1-28.1-28.1h-29.6c-15.5 0-28.1 12.6-28.1 28.1v58.1c0 15.5 12.6 28.1 28.1 28.1z" fill="#760fc3"/><path d="m641.3 266.3h29.6c15.5 0 28.6-13 28.6-28.5v-58.1c0-9.4-5-17.8-12.2-22.9 10.7 3.9 18 14.3 18 26.4v58.1c0 15.5-12.4 28-27.9 28h-29.6c-6.1 0-11.7-1.7-16.3-4.9 3.2 1 6.4 1.9 9.8 1.9z" fill="#590d9b"/><path d="m640.2 212.2h41c5.5 0 10-4.5 10-10v-6.3c0-5.5-4.5-10-10-10h-41c-5.5 0-10 4.5-10 10v6.3c.1 5.5 4.5 10 10 10z" fill="#492f5c"/><circle cx="677.4" cy="199" fill="#0dd3c5" r="2.5"/><circle cx="640.7" cy="199" fill="#0dd3c5" r="2.5"/><path d="m654.2 269.2h15.9v11.1h-15.9z" fill="#590d9b"/><path d="m645.2 226.1c-1.2 0-2.1 1.2-1.8 2.4 1.5 5.3 8 9.8 15.7 9.8s14.2-4.5 15.7-9.8c.3-1.2-.6-2.4-1.8-2.4z" fill="#492f5c"/><path d="m660.8 155s-1.2-11.6 4.2-15.1" fill="none" stroke="#760fc3" stroke-miterlimit="10" stroke-width="3"/><path d="m665.6 133.2c-2.7 0-4.8 2.2-4.8 4.8 0 2.7 2.2 4.8 4.8 4.8 2.7 0 4.8-2.2 4.8-4.8 0-2.6-2.2-4.8-4.8-4.8z" fill="#492f5c"/><path d="m640.1 416.8c0 21.6-4.8 72.7 47 72.7" fill="none" stroke="#760fc3" stroke-linecap="round" stroke-miterlimit="10" stroke-width="16"/><path d="m683.8 481.7h26v49.4s-26 0-26-49.4z" fill="#590d9b"/><path d="m679.7 416.8c0 21.6-4.8 72.7 47 72.7" fill="none" stroke="#760fc3" stroke-linecap="round" stroke-miterlimit="10" stroke-width="16"/><path d="m723.7 481.4h26v49.4s-26 0-26-49.4z" fill="#590d9b"/><path d="m613.4 318.5s-1.1 52.5-59.7 74.1" fill="none" stroke="#760fc3" stroke-linecap="round" stroke-miterlimit="10" stroke-width="16"/><path d="m693 416.8h-60.2c-10.7 0-19.4-8.7-19.4-19.4v-78.9c0-21.2 17.2-38.4 38.4-38.4h22.2c21.2 0 38.4 17.2 38.4 38.4v78.9c-.1 10.7-8.7 19.4-19.4 19.4z" fill="#590d9b"/><path d="m703.2 318.8s23.6 16.8 23.6 120.4" fill="none" stroke="#760fc3" stroke-linecap="round" stroke-miterlimit="10" stroke-width="16"/><path d="m749.7 481.4h7.2v49.4h-7.2z" fill="#492f5c"/><path d="m642.8 322.8h18" fill="none" stroke="#0dd3c5" stroke-linecap="round" stroke-miterlimit="10" stroke-width="10"/><path d="m642.8 343.4h18" fill="none" stroke="#0dd3c5" stroke-linecap="round" stroke-miterlimit="10" stroke-width="10"/><path d="m642.8 364h18" fill="none" stroke="#0dd3c5" stroke-linecap="round" stroke-miterlimit="10" stroke-width="10"/></svg>