<svg enable-background="new 0 0 482.3 400" viewBox="0 0 482.3 400" xmlns="http://www.w3.org/2000/svg"><path d="m340.9 136.1h-173.2c-4.3 0-7.8 3.5-7.8 7.8v232.5c28.1 15.1 60.2 23.6 94.4 23.6s66.2-8.6 94.4-23.6v-232.6c0-4.3-3.5-7.7-7.8-7.7z" fill="#fff"/><path d="m454.3 200c0-110.5-89.5-200-200-200s-200 89.5-200 200c0 76.3 42.8 142.7 105.6 176.4v-232.6c0-4.3 3.5-7.8 7.8-7.8h173.2c4.3 0 7.8 3.5 7.8 7.8v232.5c62.9-33.6 105.6-100 105.6-176.3z" fill="#0dd3c5" opacity=".2"/><path d="m363.8 121.8c0-11.5-9.3-20.7-20.7-20.7h-177.5c-11.5 0-20.7 9.3-20.7 20.7v245.5c4.9 3.2 9.9 6.2 15.1 8.9v-232.4c0-4.3 3.5-7.8 7.8-7.8h173.2c4.3 0 7.8 3.5 7.8 7.8v232.5c5.2-2.8 10.2-5.7 15.1-8.9v-245.6z" fill="#0dd3c5"/><path d="m269.6 122.2h-30.5c-.9 0-1.6-.7-1.6-1.6s.7-1.6 1.6-1.6h30.5c.9 0 1.6.7 1.6 1.6s-.7 1.6-1.6 1.6z" fill="#fff"/><circle cx="226.4" cy="120.5" fill="#fff" r="2.6"/><g fill="#ffc500"><path d="m390.3 92.1c0-19.4 18.4-37.2 37.8-37.2v-1.7c-19.4 0-37.8-19.3-37.8-38.7h-.7c0 19.4-17.3 38.7-36.7 38.7v1.7c19.4 0 36.8 17.8 36.8 37.2z"/><path d="m67.5 286.1c0-19.4 18.4-37.2 37.8-37.2v-1.7c-19.4 0-37.8-19.3-37.8-38.7h-.7c0 19.4-17.3 38.7-36.7 38.7v1.7c19.4 0 36.8 17.8 36.8 37.2z"/><path d="m461.6 184.2c0-9.7 11-20.9 20.7-20.9v-1c-9.7 0-20.7-12-20.7-21.7h-.4c0 9.7-10.4 21.7-20.1 21.7v1c9.7 0 20.1 11.2 20.1 20.9z"/><path d="m20.5 152c0-9.7 11-20.9 20.7-20.9v-1c-9.7 0-20.7-12-20.7-21.7h-.4c0 9.7-10.4 21.7-20.1 21.7v1c9.7 0 20.1 11.2 20.1 20.9z"/><path d="m414.3 247.8c0-6.4 7.3-13.9 13.8-13.9v-.7c-6.4 0-13.8-8-13.8-14.5h-.3c0 6.4-6.9 14.5-13.4 14.5v.7c6.4 0 13.4 7.4 13.4 13.9z"/><path d="m125.7 75.2c0-9.7 11-20.9 20.7-20.9v-1c-9.7 0-20.7-12-20.7-21.7h-.4c0 9.7-10.4 21.7-20.1 21.7v1c9.7 0 20.1 11.2 20.1 20.9z"/></g><path d="m277.2 269-46.1-.2c-7.3 0-13.2-6-13.2-13.3l.2-46.1c0-7.3 6-13.2 13.3-13.2l46.1.2c7.3 0 13.2 6 13.2 13.3l-.2 46.1c0 7.3-6 13.2-13.3 13.2z" fill="#760fc3"/><path d="m271.9 248.2c3.8-4.3 5.9-9.7 5.9-15.5 0-6-2.2-11.6-6-15.7l17.6-17.4c.5-.5.5-1.2 0-1.7s-1.2-.5-1.7 0l-17.6 17.4c-4.1-3.8-9.7-6.1-15.7-6.1h-.1c-5.9 0-11.3 2.2-15.4 5.8l-17.2-17.4c-.5-.5-1.2-.5-1.7 0s-.5 1.2 0 1.7l17.2 17.4c-3.9 4.2-6.3 9.8-6.4 15.9 0 6 2.2 11.6 6 15.8l-17.1 17c-.5.5-.5 1.2 0 1.7.2.2.5.4.9.4.3 0 .6-.1.9-.4l17.1-17c4.1 3.8 9.7 6.1 15.7 6.1h.1c5.9 0 11.5-2.2 15.9-6.2l17.2 17.4c.2.2.5.4.9.4.3 0 .6-.1.9-.4.5-.5.5-1.2 0-1.7zm3.5-15.5c0 5.3-2 10-5.2 13.7l-13.9-14 13.8-13.7c3.3 3.7 5.3 8.6 5.3 14zm-21.1-21.2c.1 0 .1 0 0 0 5.5 0 10.4 2.1 14.1 5.4l-13.8 13.7-13.9-14c3.6-3.2 8.4-5.1 13.6-5.1zm-21 21c0-5.5 2.2-10.5 5.6-14.2l13.9 14.1-14.3 14.2c-3.2-3.8-5.3-8.7-5.2-14.1zm21 21.2c-5.5 0-10.4-2.1-14.1-5.4l14.3-14.2 13.9 14.1c-3.7 3.4-8.6 5.5-14.1 5.5z" fill="#fff"/></svg>