<svg enable-background="new 0 0 184 184" viewBox="0 0 184 184" xmlns="http://www.w3.org/2000/svg"><circle cx="92" cy="92" fill="#fff" r="92"/><path d="m37.9 119h39.5c.9 0 1.4.5 1.4 1.4 0 1.2-1 1.6-2.2 1.6h-2.4c-1.7 0-3.1 1.3-3.1 3s1.4 3 3.1 3h48.1c1.7 0 3.1-1.3 3.1-3s-1.4-3-3.1-3h-2.4c-1.3 0-2.2-.4-2.2-1.6 0-.9.6-1.4 1.4-1.4h20.2c1.7 0 3.1-1.8 3.1-3.5s-1.4-3.5-3.1-3.5h-2.4c-1.3 0-2.2-.8-2.2-2s1-2 2.2-2h10.1c1.7 0 3.1-.8 3.1-2.5s-1.4-2.5-3.1-2.5h-35.9c-.9 0-1.4-1.5-1.4-2.4 0-1.2 1-2.6 2.2-2.6h9.1c1.7 0 3.1-1.3 3.1-3s-1.4-3-3.1-3h-74.5c-1.7 0-3.1 1.3-3.1 3s1.4 3 3.1 3h3.1c1.3 0 2.2 1.4 2.2 2.6 0 .9-.6 2.4-1.4 2.4h-4.8c-1.7 0-3.1.8-3.1 2.5s1.4 2.5 3.1 2.5h4c1.3 0 2.2.8 2.2 2s-1 2-2.2 2h-11.7c-1.7 0-3.1 1.8-3.1 3.5s1.4 3.5 3.1 3.5z" fill="#0dd3c5"/><path d="m86 73.5c-1.5 0-2.9 0-4.4-.1-.3 0-.5-.2-.5-.5s.2-.5.5-.5c1.4 0 2.9.1 4.3.1 15.2 0 25.8-2.5 25.8-4.8s-10.6-4.8-25.8-4.8-25.8 2.5-25.8 4.8c0 1.5 5.4 3.6 15.8 4.4.3 0 .5.3.5.5 0 .3-.3.5-.5.5-3.9-.3-16.7-1.7-16.7-5.4 0-3.8 13.8-5.8 26.8-5.8s26.8 2 26.8 5.8-13.8 5.8-26.8 5.8z" fill="#760fc3"/><path d="m79.6 73c-.4 0-.9.1-1.3.1-.3 0-.5-.2-.5-.5s.3-.4.5-.4c.4 0 .8.1 1.2.1.3 0 .5.1.5.4.1.2-.1.3-.4.3z" fill="#760fc3"/><path d="m86 100.5c-12.6 0-25.9-2-25.9-5.8s13.4-5.8 25.9-5.8 25.9 2 25.9 5.8-13.3 5.8-25.9 5.8zm0-10.7c-14.7 0-24.9 2.5-24.9 4.8s10.2 4.8 24.9 4.8 24.9-2.5 24.9-4.8-10.2-4.8-24.9-4.8z" fill="#760fc3"/><path d="m90.8 113.5h-9.6c-12.1 0-22-9.9-22-22v-23.9c0-.3.2-.5.5-.5s.5.2.5.5v23.9c0 11.6 9.4 21 21 21h9.6c11.6 0 21-9.4 21-21v-23.9c0-.3.2-.5.5-.5s.5.2.5.5v23.9c0 12.1-9.8 22-22 22z" fill="#760fc3"/><path d="m75.9 105.1c-1 0-2-.7-2.3-1.7l-3.6-11.7c-.4-1.4.2-2.9 1.3-3.7l2.4-2.4c.2-.2.5-.2.7 0s.2.5 0 .7l-2.4 2.5c-.9.7-1.3 1.7-1 2.7l3.6 11.7c.2.7 1 1.2 1.7.9l5.2-1.6c.3-.1.5.1.6.3.1.3-.1.5-.3.6l-5.2 1.6c-.3.1-.5.1-.7.1z" fill="#760fc3"/><path d="m79.5 100.9c-1.1.3-2.3-.3-2.6-1.4l-3.5-11.5c-.3-1.1.3-2.3 1.4-2.6l9.5-2.8c1.9-.6 3.9.5 4.5 2.4l3 10c.3 1.1-.3 2.3-1.4 2.6" fill="#fff"/><path d="m78.9 101.4c-.4 0-.9-.1-1.3-.3-.6-.3-1.1-.9-1.3-1.6l-3.3-11.4c-.4-1.4.4-2.9 1.8-3.3l9.5-2.8c2.2-.6 4.5.6 5.1 2.8l3 10c.4 1.4-.4 2.9-1.8 3.3-.3.1-.6-.1-.6-.3-.1-.3.1-.5.3-.6.9-.3 1.4-1.2 1.1-2l-3-10c-.5-1.6-2.2-2.6-3.9-2.1l-9.5 2.7c-.9.3-1.4 1.2-1.1 2l3.4 11.4c.1.4.4.8.8 1s.8.3 1.2.1c.3-.1.5.1.6.3.1.3-.1.5-.3.6-.2.2-.5.2-.7.2z" fill="#760fc3"/><path d="m75.7 103.8c-.1 0-.2 0-.3-.1-.2-.2-.2-.5-.1-.7l1.2-1.5c.2-.2.5-.2.7-.1.2.2.2.5.1.7l-1.2 1.5c-.1.1-.3.2-.4.2z" fill="#760fc3"/><path d="m80.7 89.6 9.5-6.7c1.9-1.3 4.5-.9 5.9 1l7 9.9c.8 1.1.5 2.7-.6 3.5l-10.9 7.7c-1.1.8-2.7.5-3.5-.6l-8-11.3c-.8-1.2-.6-2.7.6-3.5z" fill="#fff"/><g fill="#760fc3"><path d="m90.1 105.9c-.9 0-1.9-.4-2.4-1.3l-8-11.3c-.9-1.3-.6-3.2.7-4.2l9.5-6.7c1-.7 2.3-1 3.5-.8s2.3.9 3.1 1.9l7 9.9c.9 1.3.6 3.2-.7 4.2l-10.9 7.7c-.6.4-1.2.6-1.8.6zm-9.1-15.9c-.4.3-.7.8-.8 1.3s0 1 .3 1.5l8 11.3c.3.4.8.7 1.3.8s1 0 1.5-.3l10.9-7.7c.9-.6 1.1-1.9.5-2.8l-7-9.9c-.6-.8-1.4-1.3-2.4-1.5s-2 .1-2.8.6z"/><path d="m88.3 111c-.8 0-1.7-.4-2.2-1.1l-8.4-11.5c-.9-1.4-.9-3.2.1-4.5l1.7-3.6c.1-.2.4-.4.7-.2.2.1.4.4.2.7l-1.7 3.6c-.8 1.1-.8 2.4-.1 3.5l8.4 11.5c.5.8 1.6.9 2.4.4l12-8.8c.4-.3.7-.6.8-1.1l.8-4c.1-.3.3-.4.6-.4.3.1.4.3.4.6l-.8 4c-.2.7-.6 1.3-1.2 1.7l-12 8.8c-.7.3-1.2.4-1.7.4z"/><path d="m88.3 109.5c-.1 0-.1 0-.2 0-.3-.1-.4-.4-.3-.6l.8-2.1c.1-.3.4-.4.6-.3s.4.4.3.6l-.8 2.1c0 .2-.2.3-.4.3z"/><path d="m88.3 93c-.1 0-.1 0-.2 0-.3-.1-.4-.4-.3-.6l3.6-10.1c.1-.3.4-.4.6-.3.3.1.4.4.3.6l-3.6 10.1c0 .1-.2.3-.4.3z"/><path d="m92.6 88.7c-.1 0-.1 0-.2 0-.3-.1-.4-.4-.3-.6l1.8-5.1c.1-.3.4-.4.6-.3.3.1.4.4.3.6l-1.8 5.1c0 .2-.2.3-.4.3z"/><path d="m86 100.5c-12.6 0-25.9-2-25.9-5.8 0-.3.2-.5.5-.5s.5.2.5.5c0 2.3 10.2 4.8 24.9 4.8s24.9-2.5 24.9-4.8c0-.3.2-.5.5-.5s.5.2.5.5c0 3.7-13.3 5.8-25.9 5.8z"/><path d="m87.5 68.5c-.3 0-.5-.2-.5-.5v-5c0-.3.2-.5.5-.5s.5.2.5.5v5c0 .3-.2.5-.5.5z"/><path d="m90.5 67.5c-.3 0-.5-.2-.5-.5v-4c0-.3.2-.5.5-.5s.5.2.5.5v4c0 .3-.2.5-.5.5z"/><circle cx="166.8" cy="32" r="17"/></g><path d="m162 38.1c0-5.9 5.6-6.1 5.6-8.3 0-.7-.4-1.1-1.3-1.1-1.1 0-1.6 1.1-1.6 1.1l-2.8-1.3s1.1-3 4.7-3c2.6 0 4.5 1.8 4.5 4 0 3.1-3.3 3.8-4.5 5.4h4.5v3.1z" fill="#fff"/></svg>