<svg enable-background="new 0 0 184 184" viewBox="0 0 184 184" xmlns="http://www.w3.org/2000/svg"><circle cx="92" cy="92" fill="#fff" r="92"/><path d="m79.5 122h3.2c3.6 0 6.5-3.2 6.5-6.8s-2.9-6.7-6.4-6.7c-1 0-1.8.2-2.7.5 0-.4.1-.9.1-1.4 0-7.8-6.3-13.7-14.1-13.7-6.5 0-11.9 4.4-13.6 10.3-1.6-1.1-3.6-1.8-5.7-1.8-5.4 0-9.8 4.3-9.8 9.7s4.4 9.7 9.8 9.7h3.5 29.2z" fill="#0dd3c5"/><path d="m156.2 99h3.5c3.9 0 7.1-3.3 7.1-7.2s-3.1-7.2-7-7.2c-1 0-2 .2-2.9.6 0-.5.1-1 .1-1.4 0-8.5-6.9-14.9-15.3-14.9-7.1 0-13 4.8-14.8 11.3-1.7-1.2-3.9-2-6.2-2-5.9 0-10.7 4.5-10.7 10.4s4.8 10.4 10.7 10.4h3.8z" fill="#0dd3c5"/><g fill="#760fc3"><path d="m106.5 112h-1c0-27-22.7-50.3-50.5-50.3-11.1 0-21.7 3.6-30.5 10.4l-.6-.7c9-6.9 19.8-10.6 31.1-10.6 28.4-.1 51.5 23.2 51.5 51.2z"/><path d="m20.9 84.3-.8-.6c.2-.3.4-.5.7-.8l.8.7c-.3.2-.5.4-.7.7z"/><path d="m23.3 81.5-.7-.7c2.1-2.2 4.5-4.2 7.1-5.9l.6.8c-2.5 1.7-4.9 3.7-7 5.8zm8.5-6.7-.5-.9c.8-.5 1.6-.9 2.4-1.4l.5.9c-.9.5-1.7.9-2.4 1.4z"/><path d="m98 102.4c-.2-.9-.4-1.8-.7-2.6l1-.3c.3.9.5 1.8.7 2.7zm-1.2-4.3c-1-2.8-2.2-5.6-3.8-8.2l.9-.5c1.6 2.6 2.9 5.5 3.8 8.4zm-5.2-10.5c-.3-.5-.7-1-1-1.5l.8-.6c.4.5.7 1 1.1 1.5zm-7.1-8.1c-.7-.6-1.4-1.2-2.1-1.7l.6-.8 2.1 1.8zm-3.5-2.8c-2.4-1.8-5-3.3-7.8-4.5l.4-.9c2.8 1.3 5.5 2.8 7.9 4.6zm-10.3-5.6c-.6-.2-1.1-.4-1.7-.6l.3-.9c.6.2 1.2.4 1.7.6zm-28.3-1.1-.3-1c.6-.2 1.2-.3 1.8-.5l.2 1c-.5.2-1.1.3-1.7.5zm4.4-1.2-.2-.9c2.7-.5 5.5-.7 8.3-.7h.8v.9c-.3 0-.5-.1-.8-.1-2.7 0-5.4.3-8.1.8zm13.5-.3c-.9-.1-1.8-.2-2.7-.2l.1-1c.9.1 1.8.1 2.8.2z"/><path d="m100.2 112.4h-1c0-.3 0-.7 0-1h1z"/><path d="m94.6 112h-1c0-21-17.3-38.5-38.7-38.5-9 0-17.8 3.3-24.8 9.1l-.6-.7c7.1-5.9 16.1-9.4 25.4-9.4 21.9 0 39.7 18.5 39.7 39.5z"/><path d="m28.6 91.2-.8-.6c.5-.6 1.1-1.3 1.7-1.9l.7.7c-.5.6-1.1 1.2-1.6 1.8z"/><path d="m87.9 104.7c-.4-1.7-.9-3.4-1.6-5l.9-.4c.7 1.7 1.2 3.4 1.6 5.1zm-3.9-9.6c-.9-1.5-1.9-2.9-3-4.3l.8-.6c1.1 1.4 2.2 2.9 3.1 4.4zm-6.6-8c-1.3-1.2-2.7-2.2-4.2-3.1l.5-.8c1.5 1 2.9 2.1 4.3 3.2zm-43.3-1.3-.7-.8c1.4-1.1 2.9-2.1 4.5-3l.5.9c-1.5.9-3 1.8-4.3 2.9zm34.5-4.4c-1.6-.7-3.2-1.3-4.9-1.7l.3-1c1.7.5 3.4 1.1 5.1 1.8zm-25.5-.7-.3-.9c1.7-.6 3.4-1.1 5.2-1.5l.2 1c-1.8.3-3.4.8-5.1 1.4zm15.4-1.9c-1.2-.1-2.4-.2-3.6-.2-.6 0-1.1 0-1.6 0v-1h1.7c1.2 0 2.5.1 3.7.2z"/><path d="m89.8 112h-1s0-1.5-.1-2.3l1-.2c0 .9.1 2.5.1 2.5z"/><path d="m85.5 112h-1c0-16-13.3-29.4-29.6-29.4-5.6 0-11 1.6-15.7 4.6l-.5-.8c4.8-3 10.4-4.8 16.2-4.8 16.9 0 30.6 14.4 30.6 30.4z"/></g><path d="m81.5 116h-2.4c-8.9 0-16-6.9-16-15.7s7.2-15.6 16-15.6c3.5 0 6.7 1.1 9.3 2.9 2.7-9.8 11.6-17 22.2-17 12.7 0 23 9.6 23 22.4 0 .7 0 1.5-.1 2.2 1.3-.6 2.8-1 4.4-1 5.8 0 10.5 5.1 10.5 10.9s-4.8 10.9-10.7 10.9h-5.3z" fill="#fff"/><path d="m137.7 116h-58.6c-9.3 0-16.5-7-16.5-16s7.3-16 16.5-16c3.2 0 6.3.9 9 2.7 3-9.8 12.1-16.6 22.5-16.6 13.2 0 23.5 10 23.5 22.9v1.4c1.2-.5 2.5-.7 3.8-.7 6.1 0 11 5 11 11.2 0 6.1-5 11.1-11.2 11.1zm-58.6-31c-8.7 0-15.5 6.6-15.5 15s6.8 15 15.5 15h58.6c5.6 0 10.2-4.6 10.2-10.2s-4.5-10.2-10-10.2c-1.4 0-2.8.3-4.2.9-.2.1-.4.1-.5 0s-.2-.3-.2-.5c.1-.8.1-1.5.1-2.1 0-12.3-9.9-21.9-22.5-21.9-10.1 0-19 6.8-21.7 16.6 0 .2-.2.3-.3.3-.2.1-.3 0-.5-.1-2.6-1.8-5.7-2.8-9-2.8z" fill="#0dd3c5"/><circle cx="122.1" cy="98.9" fill="#760fc3" r="1.6"/><circle cx="89.7" cy="98.9" fill="#760fc3" r="1.6"/><path d="m105.7 104.3c-2.4 0-4.4-1.4-4.4-1.5-.2-.2-.3-.5-.1-.7s.5-.3.7-.1c.2.1 3.8 2.8 7.1 0 .2-.2.5-.1.7.1s.2.5-.1.7c-1.4 1.1-2.7 1.5-3.9 1.5z" fill="#760fc3"/><path d="m120.1 76.3c-.7-.3-1.1-.5-1.9-.8" fill="#fff"/><path d="m120.1 76.8c-.1 0-.1 0-.2 0-.6-.3-1.1-.5-1.8-.7-.3-.1-.4-.4-.3-.6.1-.3.4-.4.6-.3.8.3 1.2.4 1.9.8.2.1.4.4.2.7-.1-.1-.3.1-.4.1z" fill="#0dd3c5"/><path d="m128.1 84.4s-1-4.4-6.8-7.6" fill="#fff"/><path d="m128.1 84.9c-.2 0-.4-.2-.5-.4 0 0-1.1-4.3-6.6-7.3-.2-.1-.3-.4-.2-.7.1-.2.4-.3.7-.2 5.9 3.2 7 7.7 7.1 7.9.1.3-.1.5-.4.6 0 .1-.1.1-.1.1z" fill="#0dd3c5"/><path d="m145 108.2s2.4-3.7 0-7.5" fill="#fff"/><path d="m145 108.7c-.1 0-.2 0-.3-.1-.2-.1-.3-.5-.1-.7.1-.1 2.2-3.5 0-7-.1-.2-.1-.5.2-.7.2-.1.5-.1.7.2 2.6 4 .1 7.9 0 8.1-.2.1-.3.2-.5.2z" fill="#0dd3c5"/><path d="m69.1 93.6c-1.2 1.8-2.2 4.2-1.9 7.1" fill="#fff"/><path d="m67.2 101.2c-.3 0-.5-.2-.5-.4-.3-2.5.4-5.1 2-7.4.2-.2.5-.3.7-.1s.3.5.1.7c-1.5 2.2-2.1 4.5-1.8 6.8 0 .1-.2.4-.5.4z" fill="#0dd3c5"/><path d="m71.8 90.6s-.7.6-1.6 1.6" fill="#fff"/><path d="m70.2 92.7c-.1 0-.2 0-.3-.1-.2-.2-.2-.5-.1-.7.9-1.1 1.7-1.6 1.7-1.7.2-.2.5-.1.7.1s.1.5-.1.7c0 0-.7.6-1.6 1.5 0 .1-.2.2-.3.2z" fill="#0dd3c5"/><circle cx="161.8" cy="32" fill="#760fc3" r="17"/><path d="m164 25.8v12.2h-3.3v-8.6h-2v-2c1.7-.3 2.4-1.7 2.4-1.7h2.9z" fill="#fff"/></svg>