<svg enable-background="new 0 0 184 184" viewBox="0 0 184 184" xmlns="http://www.w3.org/2000/svg"><circle cx="92" cy="92" fill="#fff" r="92"/><path d="m82.9 90h4.4c4.9 0 8.9-4.2 8.9-9.1s-3.9-9-8.8-9c-1.3 0-2.5.3-3.7.8.1-.6.1-1.2.1-1.8 0-10.6-8.6-18.7-19.3-18.7-8.9 0-16.4 6-18.6 14.2-2.2-1.6-4.9-2.5-7.8-2.5-7.4 0-13.4 5.7-13.4 13.1s6.2 13 13.6 13h4.7z" fill="#0dd3c5"/><path d="m147.4 98h3.2c3.5 0 6.5-3.1 6.5-6.7s-2.8-6.6-6.4-6.6c-.9 0-1.8.2-2.6.5 0-.4.1-.9.1-1.3 0-7.7-6.2-13.6-13.9-13.6-6.4 0-11.8 4.3-13.5 10.3-1.6-1.1-3.5-1.8-5.6-1.8-5.4 0-9.7 4.2-9.7 9.6s4.4 9.6 9.7 9.6h3.4z" fill="#0dd3c5"/><path d="m71 113h-6.8c-9.5 0-17.3-7.5-17.3-17s7.7-16.9 17.3-16.9c3.7 0 7.2 1.1 10 3.1 2.9-10.4 12.5-18.2 23.9-18.2 13.7 0 24.8 10.4 24.8 24.1 0 .8 0 1.6-.1 2.3 1.4-.7 3-1 4.7-1 6.3 0 11.3 5.5 11.3 11.8s-5.2 11.8-11.5 11.8h-5.3" fill="#fff"/><path d="m127.3 113h-5.3c-.3 0-.5-.2-.5-.5s.2-.5.5-.5h5.3c5.9 0 11-5.1 11-11.1 0-6.1-4.9-11.1-10.8-11.1-1.5 0-3.1.3-4.5 1-.2.1-.4.1-.5 0s-.2-.3-.2-.5c.1-.8.1-1.6.1-2.3 0-13.2-10.7-23.6-24.3-23.6-10.9 0-20.5 7.4-23.4 17.9 0 .2-.2.3-.3.3-.2.1-.3 0-.5-.1-2.9-2-6.2-3.1-9.7-3.1-9.4 0-16.8 7.1-16.8 16.2s7.4 16.2 16.8 16.2h6.8c.3 0 .5.2.5.5s-.2.7-.5.7h-6.8c-10 0-17.8-7.6-17.8-17.2 0-9.7 7.8-17.2 17.8-17.2 3.5 0 6.8 1 9.7 2.9 3.2-10.7 13.1-18 24.2-18 14.2 0 25.3 10.8 25.3 24.6 0 .5 0 1-.1 1.6 1.3-.5 2.7-.8 4.1-.8 6.5 0 11.8 5.4 11.8 12.1.1 6.5-5.4 12-11.9 12z" fill="#0dd3c5"/><path d="m117 113h-43c-.3 0-.5-.2-.5-.5s.2-.5.5-.5h43c.3 0 .5.2.5.5s-.2.5-.5.5z" fill="#0dd3c5"/><g fill="#760fc3"><circle cx="110.5" cy="90.2" r="1.7"/><circle cx="75.6" cy="90.2" r="1.7"/><path d="m94.9 93.9c-2.6 0-4.7-1.5-4.7-1.6-.2-.2-.3-.5-.1-.7s.5-.3.7-.1c.2.1 4.1 3 7.6 0 .2-.2.5-.2.7.1s.2.5-.1.7c-1.3 1.2-2.8 1.6-4.1 1.6z"/></g><path d="m102.4 133.4h-13.7c-3.1 0-5.6-2.5-5.6-5.6v-13.6c0-3.1 2.5-5.6 5.6-5.6h13.6c3.1 0 5.6 2.5 5.6 5.6v13.6c.1 3.1-2.4 5.6-5.5 5.6z" fill="#fff"/><path d="m102.4 133.9h-13.7c-3.4 0-6.1-2.7-6.1-6.1v-13.6c0-3.4 2.7-6.1 6.1-6.1h13.6c3.4 0 6.1 2.7 6.1 6.1v13.6c.1 3.4-2.7 6.1-6 6.1zm-13.7-24.8c-2.8 0-5.1 2.3-5.1 5.1v13.6c0 2.8 2.3 5.1 5.1 5.1h13.6c2.8 0 5.1-2.3 5.1-5.1v-13.6c0-2.8-2.3-5.1-5.1-5.1z" fill="#760fc3"/><circle cx="95.6" cy="121" fill="#fff" r="9"/><path d="m95.6 130.5c-5.3 0-9.5-4.3-9.5-9.5s4.3-9.5 9.5-9.5 9.5 4.3 9.5 9.5-4.3 9.5-9.5 9.5zm0-18c-4.7 0-8.5 3.8-8.5 8.5s3.8 8.5 8.5 8.5 8.5-3.8 8.5-8.5-3.8-8.5-8.5-8.5z" fill="#760fc3"/><path d="m105.7 132.1c-.1 0-.3 0-.4-.1l-21.2-21.2c-.2-.2-.2-.5 0-.7s.5-.2.7 0l21.2 21.2c.2.2.2.5 0 .7 0 .1-.1.1-.3.1z" fill="#760fc3"/><path d="m84.6 132.1c-.1 0-.3 0-.4-.1-.2-.2-.2-.5 0-.7l21.2-21.2c.2-.2.5-.2.7 0s.2.5 0 .7l-21.2 21.2c-.1.1-.2.1-.3.1z" fill="#760fc3"/><circle cx="95.6" cy="121" fill="#fff" r="3.7"/><path d="m95.6 125.2c-2.3 0-4.2-1.9-4.2-4.2s1.9-4.2 4.2-4.2 4.2 1.9 4.2 4.2-1.9 4.2-4.2 4.2zm0-7.4c-1.8 0-3.2 1.4-3.2 3.2s1.4 3.2 3.2 3.2 3.2-1.4 3.2-3.2-1.5-3.2-3.2-3.2z" fill="#760fc3"/><path d="m121.2 107.9s2.4 9.4-9.9 18.5c-1.1.8-4.5 3.1-6.3.2-2.1-3.6 4.2-2.6 4.2-3.7l-.2-.8" fill="#fff"/><path d="m107.4 128.5c-.2 0-.5 0-.7-.1-.9-.2-1.6-.7-2.2-1.6-.5-.9-.6-1.6-.4-2.2.5-1.1 2-1.3 3.2-1.5.4-.1 1-.2 1.3-.3l-.1-.6c-.1-.3.1-.5.4-.6s.5.1.6.4l.2.8v.1c0 .8-1 1-2.1 1.2-.9.2-2.2.4-2.5 1-.2.4.1.9.3 1.3.4.7.9 1 1.5 1.2 1 .2 2.4-.3 4-1.5 6.2-4.6 8.6-9.2 9.4-12.3.9-3.3.3-5.6.3-5.6-.1-.3.1-.5.4-.6s.5.1.6.4c.1.4 2.4 9.8-10.1 19-1.5.9-2.9 1.5-4.1 1.5z" fill="#0dd3c5"/><path d="m111.2 121.6c-.2 0-.3-.1-.4-.2-.4-.6-1.1-1.3-1.4-1.2s-.5-.1-.6-.3c-.1-.3.1-.5.3-.6 1-.3 1.9.7 2.3 1.3 1.9-.6 5.7-4.6 5.7-11.3 0-.3.2-.5.5-.5s.5.2.5.5c0 7.4-4.5 12-6.9 12.3z" fill="#0dd3c5"/><path d="m69.8 109.2s-.8 8.5 9.9 17.2c1.1.9 4.5 3.1 6.3.2 2.1-3.6-5.1-2.3-4.6-4.2l.4-1.1" fill="#fff"/><path d="m83.5 128.5c-1.8 0-3.6-1.3-4.1-1.8-10.8-8.7-10.1-17.3-10.1-17.6s.3-.5.5-.5c.3 0 .5.3.5.5 0 .1-.6 8.4 9.7 16.7.4.3 2.3 1.8 3.9 1.5.6-.1 1.2-.5 1.6-1.2.3-.5.4-.9.3-1.1-.2-.5-1.4-.8-2.4-1-1.1-.2-2-.4-2.4-1-.2-.3-.2-.6-.1-.9l.4-1.2c.1-.3.4-.4.6-.3.3.1.4.4.3.6l-.4 1.1c.2.3 1.1.5 1.8.6 1.3.3 2.7.6 3.1 1.6.2.6.1 1.3-.3 2.1-.6.9-1.3 1.5-2.3 1.7-.2.2-.4.2-.6.2z" fill="#0dd3c5"/><path d="m79.8 121.6c-2.3-.3-5.9-4.8-6.9-14.1 0-.3.2-.5.4-.5.3 0 .5.2.5.4.9 8.3 3.9 12.4 5.6 13.1.3-.7 1-1.6 2.3-1.4.3 0 .5.3.4.6 0 .3-.3.5-.6.4-1.1-.2-1.3 1-1.4 1.1.2.2-.1.4-.3.4z" fill="#0dd3c5"/><path d="m107.5 92.7s3.1-1.9 6.7-.4" fill="#fff"/><path d="m107.5 93.2c-.2 0-.3-.1-.4-.2-.1-.2-.1-.5.2-.7.1-.1 3.4-2 7.2-.4.3.1.4.4.3.7s-.4.4-.7.3c-3.3-1.4-6.3.3-6.3.3-.1 0-.2 0-.3 0z" fill="#0dd3c5"/><path d="m71.9 92.5s3.3-1.6 6.7.2" fill="#fff"/><path d="m78.6 93.2c-.1 0-.2 0-.2-.1-3.2-1.7-6.3-.2-6.3-.2-.2.1-.5 0-.7-.2-.1-.2 0-.5.2-.7.1-.1 3.5-1.7 7.2.2.2.1.3.4.2.7 0 .2-.2.3-.4.3z" fill="#0dd3c5"/><path d="m108.3 70.1c-.7-.3-1.2-.5-2-.8" fill="#fff"/><path d="m108.3 70.6c-.1 0-.1 0-.2 0-.7-.3-1.2-.5-2-.8-.3-.1-.4-.4-.3-.6.1-.3.4-.4.6-.3.8.3 1.3.5 2.1.8.2.1.4.4.2.7 0 .1-.2.2-.4.2z" fill="#0dd3c5"/><path d="m117 78.9s-1.1-4.8-7.4-8.2" fill="#fff"/><path d="m117 79.4c-.2 0-.4-.2-.5-.4 0 0-1.2-4.6-7.1-7.8-.2-.1-.3-.4-.2-.7.1-.2.4-.3.7-.2 6.4 3.4 7.6 8.3 7.6 8.5.1.3-.1.5-.5.6z" fill="#0dd3c5"/><path d="m135.2 104.5s2.6-4 0-8.1" fill="#fff"/><path d="m135.2 105c-.1 0-.2 0-.3-.1-.2-.1-.3-.5-.1-.7.1-.2 2.4-3.8 0-7.6-.1-.2-.1-.5.2-.7.2-.1.5-.1.7.2 2.8 4.3.1 8.5 0 8.7-.2.2-.3.2-.5.2z" fill="#0dd3c5"/><path d="m53.4 88.8c-1.3 1.9-2.4 4.5-2.1 7.7" fill="#fff"/><path d="m51.3 97c-.3 0-.5-.2-.5-.4-.3-2.7.5-5.5 2.2-8 .2-.2.5-.3.7-.1s.3.5.1.7c-1.6 2.4-2.3 4.8-2 7.3.1.2-.1.4-.5.5.1 0 .1 0 0 0z" fill="#0dd3c5"/><path d="m56.3 85.6s-.8.6-1.8 1.7" fill="#fff"/><path d="m54.6 87.8c-.1 0-.2 0-.3-.1-.3-.2-.3-.5-.1-.7 1-1.1 1.8-1.8 1.8-1.8.2-.2.5-.1.7.1s.1.5-.1.7c0 0-.8.6-1.7 1.7-.1 0-.2.1-.3.1z" fill="#0dd3c5"/><circle cx="166.8" cy="32" fill="#760fc3" r="17"/><path d="m171.3 34.6c0 1.9-1.8 3.8-4.7 3.8-3.2 0-4.8-2-4.8-2l1.9-2s1 1.2 2.4 1.2c1 0 1.7-.6 1.7-1.3 0-.6-.5-1.1-1.6-1.1h-1.2v-2.6h1.2c.8 0 1.3-.5 1.3-1.1s-.5-1.1-1.3-1.1c-1.2 0-2 1-2 1l-1.9-1.9s1.3-1.8 4.4-1.8c2.7 0 4.4 1.7 4.4 3.5 0 1.9-1.7 2.6-1.7 2.6s1.9.5 1.9 2.8z" fill="#fff"/></svg>