<svg enable-background="new -752.2 614.4 163.2 43.8" viewBox="-752.2 614.4 163.2 43.8" xmlns="http://www.w3.org/2000/svg"><path d="m-670.7 648h-7.4v-15.5h7.2c3.2 0 5 1.6 5 4 0 1.7-.9 2.7-2 3.3 1.8.7 2.9 1.7 2.9 3.8.1 2.9-2.2 4.4-5.7 4.4zm1.5-10.9c0-1-.8-1.5-2.2-1.5h-3.4v3.1h3.2c1.5 0 2.4-.5 2.4-1.6zm.8 6.1c0-1-.7-1.7-2.4-1.7h-4v3.3h4.1c1.5.1 2.3-.4 2.3-1.6z"/><path d="m-661.6 648v-15.5h3.3v15.5z"/><path d="m-647.1 635.6v12.4h-3.3v-12.4h-4.8v-3.1h12.8v3.1z"/><path d="m-629.9 648-3.3-5h-2.7v5h-3.3v-15.5h7c3.6 0 5.8 1.9 5.8 5.1 0 2.5-1.3 4.1-3.3 4.8l3.8 5.5zm0-10.2c0-1.5-1-2.2-2.6-2.2h-3.4v4.5h3.4c1.7-.1 2.6-1 2.6-2.3z"/><path d="m-622.9 648v-15.5h3.5v15.5z"/><path d="m-609.4 648.1c-2.3 0-4.7-.8-6.5-2.5l2-2.4c1.4 1.1 2.9 1.9 4.6 1.9 1.4 0 2.2-.6 2.2-1.5 0-.9-.6-1.3-3.2-2-3.1-.8-5.2-1.7-5.2-4.7 0-2.8 2.3-4.7 5.4-4.7 2.2 0 4.2.7 5.7 2l-1.8 2.6c-1.4-.9-2.7-1.5-4-1.5s-2 .6-2 1.3c0 1 .6 1.3 3.3 2 3.1.8 4.8 1.9 4.8 4.6.4 3.2-1.9 4.9-5.3 4.9z"/><path d="m-600.8 648v-15.5h11.6v3.1h-8.1v3.1h7.2v3.1h-7.2v3.1h8.3v3.1z"/><path d="m-695.5 658.2c-.7 0-1.4-.6-1.4-1.4v-33.5c0-.7.6-1.4 1.4-1.4.7 0 1.4.6 1.4 1.4v33.5c-.1.8-.7 1.4-1.4 1.4z"/><path d="m-737.9 631.9h23.8v21.3h-23.8z" fill="#fff"/><path d="m-730.9 641.6c-.4 0-.7-.3-.7-.7 0-.5-.4-.9-.9-.9s-.9.4-.9.9c0 .4-.3.7-.7.7s-.7-.3-.7-.7c0-1.2 1-2.2 2.2-2.2s2.2 1 2.2 2.2c.2.4-.1.7-.5.7z"/><path d="m-718.1 641.6c-.4 0-.7-.3-.7-.7 0-.5-.4-.9-.9-.9s-.9.4-.9.9c0 .4-.3.7-.7.7s-.7-.3-.7-.7c0-1.2 1-2.2 2.2-2.2s2.2 1 2.2 2.2c.2.4-.1.7-.5.7z"/><path d="m-710.2 640.2c0-1.8-1.3-3.4-3-3.8v-4.4c0-.5-.4-1-1-1h-11v-3.1h.8c.5 0 1-.4 1-1v-3.5c0-.5-.4-1-1-1h-3.5c-.5 0-1 .4-1 1v3.5c0 .5.4 1 1 1h.8v3.1h-10.8c-.5 0-1 .4-1 1v4.4c-1.8.4-3.1 2-3.1 3.9s1.3 3.5 3.1 3.9v9.1c0 .5.4 1 1 1h23.8c.5 0 1-.4 1-1v-9.3c1.7-.4 2.9-2 2.9-3.8zm-16.7-15.9h1.5v1.5h-1.5zm-13.2 15.9c0-.8.5-1.6 1.2-1.9v3.8c-.7-.4-1.2-1.1-1.2-1.9zm3.1 12v-19.4h21.9v4.2.1.1 5.9.1.1 8.9zm23.9-10.2v-3.7c.6.4 1.1 1 1.1 1.8-.1.8-.5 1.5-1.1 1.9z"/><path d="m-738.3 646.2h24v1.9h-24z"/><path d="m-713.3 634.5h-25.5c-.7 0-1.3-.6-1.3-1.3v-3.7c0-.7.6-1.3 1.3-1.3h25.5c.7 0 1.3.6 1.3 1.3v3.7c0 .7-.6 1.3-1.3 1.3z" fill="#fff"/><path d="m-714.1 628.2s-.4-13.9-17.5-13.9c-9.9 0-17.7 9-17.7 20.1h1.6s4.8-11.5 10.8-6.2z" fill="#ff505d"/><path d="m-730.6 614.4c-.4 0-.7 0-1.1 0-9.9 0-17.7 9-17.7 20.1h1.6c0-10.9 7.6-19.8 17.2-20.1z" fill="#bf2e40"/><circle cx="-748.8" cy="636.2" fill="#fff" r="3.4"/><path d="m-747.9 638.8c-1.9 0-3.4-1.5-3.4-3.4 0-.7.2-1.3.5-1.8-.8.6-1.3 1.6-1.3 2.7 0 1.9 1.5 3.4 3.4 3.4 1.2 0 2.3-.7 2.9-1.6-.6.4-1.3.7-2.1.7z" opacity=".07"/><path d="m-713.2 635.6-25.6 1v-2.1h25.6z" opacity=".07"/></svg>