<svg enable-background="new 0 0 192.6 305.7" viewBox="0 0 192.6 305.7" xmlns="http://www.w3.org/2000/svg"><path d="m129.5 305.7h-66.4c-34.9 0-63.1-28.2-63.1-63v-130.6c0-34.9 28.2-63.1 63.1-63.1h66.4c34.8 0 63.1 28.2 63.1 63.1v130.6c0 34.8-28.3 63-63.1 63z" fill="#760fc3"/><path d="m144.2 298.6h-66.4c-34.8 0-64.6-28.9-64.6-63.7v-130.6c0-21.2 11.4-40 27.4-51.4-24.1 8.9-40.4 32-40.4 59.2v130.6c0 34.8 28 62.9 62.8 62.9h66.4c13.6 0 26.2-3.9 36.5-11.3-6.7 2.5-14 4.3-21.7 4.3z" fill="#590d9b"/><path d="m146.7 177.4h-92.2c-12.4 0-22.4-10-22.4-22.4v-14.1c0-12.4 10-22.4 22.4-22.4h92.2c12.4 0 22.4 10 22.4 22.4v14.1c0 12.3-10 22.4-22.4 22.4z" fill="#492f5c"/><circle cx="63.3" cy="147.9" fill="#0dd3c5" r="5.6"/><circle cx="145.7" cy="147.9" fill="#0dd3c5" r="5.6"/><path d="m100.6 49s2.6-26-9.5-33.8" fill="none" stroke="#760fc3" stroke-miterlimit="10" stroke-width="3"/><path d="m89.8 0c6 0 10.8 4.9 10.8 10.8 0 6-4.9 10.8-10.8 10.8-6 0-10.8-4.9-10.8-10.8 0-5.9 4.8-10.8 10.8-10.8z" fill="#492f5c"/></svg>