<svg viewBox="0 0 178 42" xmlns="http://www.w3.org/2000/svg" xmlns:xlink="http://www.w3.org/1999/xlink"><mask id="a" fill="#fff"><path d="m0 42h177.579v-42h-177.579z" fill="#fff" fill-rule="evenodd"/></mask><g fill="#3bc3a3" fill-rule="evenodd"><path d="m85.916 24.83c0-1.188-.91-1.92-2.965-1.92h-4.629v3.89h4.76c1.768 0 2.834-.606 2.834-1.92zm-1.014-7.074c0-1.162-.937-1.819-2.627-1.819h-3.953v3.739h3.693c1.768 0 2.887-.556 2.887-1.87zm-1.82 12.455h-8.66v-17.685h8.451c3.719 0 6.008 1.794 6.008 4.573v.05c0 1.997-1.093 3.108-2.393 3.815 2.107.783 3.407 1.97 3.407 4.346v.05c0 3.234-2.705 4.85-6.814 4.85z"/><path d="m93.579 30.21h3.684v-17.683h-3.683zm16.693-14.096v14.096h-3.913v-14.096h-5.412v-3.588h14.737v3.588zm20.043 2.45c0-1.667-1.176-2.526-3.094-2.526h-3.914v5.078h3.99c1.918 0 3.018-1.01 3.018-2.501v-.05zm-.077 11.647-3.836-5.66h-3.095v5.66h-3.939v-17.685h8.185c4.22 0 6.752 2.198 6.752 5.836v.05c0 2.855-1.56 4.65-3.836 5.483l4.373 6.316zm8.288-.001h3.685v-17.683h-3.685zm15.611 0c-2.678 0-5.382-.946-7.505-2.865l2.3-2.789c1.591 1.33 3.26 2.175 5.28 2.175 1.593 0 2.553-.64 2.553-1.689v-.05c0-.999-.607-1.51-3.563-2.278-3.563-.92-5.863-1.919-5.863-5.475v-.051c0-3.25 2.578-5.399 6.192-5.399 2.577 0 4.776.82 6.57 2.278l-2.022 2.967c-1.567-1.1-3.108-1.765-4.599-1.765-1.49 0-2.274.69-2.274 1.56v.052c0 1.177.758 1.56 3.815 2.353 3.589.947 5.61 2.252 5.61 5.373v.052c0 3.556-2.678 5.552-6.494 5.552m9.442-.001v-17.683h13.869v3.461h-9.85v3.588h8.668v3.46h-8.668v3.714h9.98v3.462zm-109.789 11.79c-.814 0-1.474-.704-1.474-1.572v-38.856c0-.868.66-1.572 1.473-1.572.814 0 1.474.704 1.474 1.572v38.856c0 .868-.66 1.572-1.474 1.572m-40.569-19.158c-.43 0-.78-.383-.78-.856 0-.616-.457-1.116-1.02-1.116-.56 0-1.018.5-1.018 1.116 0 .473-.349.856-.78.856-.43 0-.78-.383-.78-.856 0-1.56 1.157-2.828 2.579-2.828s2.579 1.269 2.579 2.828c0 .473-.35.856-.78.856m14.737 0c-.431 0-.78-.383-.78-.856 0-.616-.457-1.116-1.019-1.116s-1.019.5-1.019 1.116c0 .473-.349.856-.78.856-.43 0-.78-.383-.78-.856 0-1.56 1.157-2.828 2.579-2.828s2.579 1.269 2.579 2.828c0 .473-.35.856-.78.856" mask="url(#a)"/><path d="m33.371 23.492v-4.284a2.428 2.428 0 0 1 0 4.284zm-27.57 11.84h25.329v-4.717h-25.328v4.717zm-3.617-13.982c0-.963.564-1.794 1.377-2.186v4.372a2.427 2.427 0 0 1 -1.377-2.186zm3.619 7.018h25.327v-15.5h-25.328v15.5zm11.654-23.588h1.793v-1.797h-1.793zm19.385 16.57a4.617 4.617 0 0 0 -3.47-4.467v-5.138c0-.62-.503-1.124-1.122-1.124h-12.776v-3.594h.897c.619 0 1.12-.503 1.12-1.123v-4.044c0-.62-.501-1.123-1.12-1.123h-4.035c-.618 0-1.12.503-1.12 1.123v4.044c0 .62.502 1.123 1.12 1.123h.897v3.594h-12.552c-.619 0-1.12.503-1.12 1.124v5.115a4.617 4.617 0 0 0 -3.561 4.49 4.617 4.617 0 0 0 3.56 4.49v10.616c0 .62.502 1.123 1.121 1.123h27.57c.618 0 1.12-.503 1.12-1.123v-10.639a4.616 4.616 0 0 0 3.471-4.467z" mask="url(#a)"/></g></svg>