<svg enable-background="new 0 0 106.3 106.3" viewBox="0 0 106.3 106.3" xmlns="http://www.w3.org/2000/svg" xmlns:xlink="http://www.w3.org/1999/xlink"><clipPath id="a"><path d="m0 0h106.3v106.3h-106.3z"/></clipPath><g fill="none" stroke="#3bc3a3" stroke-linecap="round" stroke-linejoin="round" stroke-miterlimit="10"><circle clip-path="url(#a)" cx="53.1" cy="53.1" r="52.6"/><path clip-path="url(#a)" d="m62.6 57.5c.7-.6 1.4-1.3 2.1-2 8.2-8.2 15.5-21.7 11.8-25.4-3.8-3.8-17.3 3.6-25.4 11.8-.7.7-1.4 1.5-2.1 2.2-1.9-.9-9.4-4-17 3-1 .9-.3 2.6 1 2.6 3.2-.1 7.7.3 10.3 2.9-.3.6-.5 1.2-.7 1.8-1.4 3.9 5.7 11.1 9.7 9.7.8-.3 1.7-.7 2.5-1.1l-.7.5c2.8 2.5 3.2 7.2 3.1 10.4-.1 1.4 1.6 2.1 2.6 1.1 7.6-8.3 3.4-16.6 2.8-17.5z"/><ellipse clip-path="url(#a)" cx="64.1" cy="42.5" rx="3" ry="3" transform="matrix(.7071 -.7071 .7071 .7071 -11.313 57.7551)"/><path clip-path="url(#a)" d="m64 32.5 10.2 10.3"/><path clip-path="url(#a)" d="m44.4 63.8c.9 3.1.8 9.9-13.7 13.6-1.3.3-2.6-.9-2.2-2.2 1.4-5.6 5.4-17.4 13.9-13.7.9.4 1.7 1.3 2 2.3z"/></g><path clip-path="url(#a)" d="m34.8 72.1c-.7.3-1.5-.4-1.2-1.1 1.3-3.3 2.9-5.6 4.5-6.3.3-.1.8-.4 1.8-.1.5.1.9.6 1 1.1 0 .6-.1 1.3-.4 2-.5 1.1-1.9 2.8-5.7 4.4" fill="#3bc3a3"/></svg>