<svg enable-background="new 0 0 176.2 261.2" viewBox="0 0 176.2 261.2" xmlns="http://www.w3.org/2000/svg" xmlns:xlink="http://www.w3.org/1999/xlink"><clipPath id="a"><path d="m0 0h176.2v261.2h-176.2z"/></clipPath><g clip-path="url(#a)"><path d="m102.5 199.8h-40.1c-21 0-38.1-17.1-38.1-38.1v-79c0-21 17.1-38.1 38.1-38.1h40.1c21 0 38.1 17.1 38.1 38.1v78.9c0 21.1-17 38.2-38.1 38.2z" fill="#760fc3"/><path d="m111.4 195.6h-40.1c-21 0-38.8-17.6-38.8-38.7v-78.9c0-12.8 6.8-24.1 16.5-31-14.9 5.6-24.6 19.9-24.5 35.7v78.9c-.1 20.9 16.7 37.9 37.5 38h.3 40.1c7.9.1 15.6-2.2 22.1-6.7-4.1 1.7-8.6 2.6-13.1 2.7" fill="#590d9b"/><path d="m0 261.2c0-25.9 21-46.9 46.9-46.9h82.4c25.9 0 46.9 21 46.9 46.9" fill="#760fc3"/><path d="m112.9 122.2h-55.7c-7.5 0-13.5-6.1-13.5-13.6v-8.5c0-7.5 6.1-13.5 13.5-13.5h55.7c7.5 0 13.6 6.1 13.6 13.6v8.5c0 7.4-6.1 13.5-13.6 13.5z" fill="#492f5c"/><path d="m59.1 104.4c0-1.9 1.5-3.4 3.4-3.4s3.4 1.5 3.4 3.4-1.5 3.4-3.4 3.4-3.4-1.5-3.4-3.4z" fill="#0dd3c5"/><path d="m108.9 104.4c0-1.9 1.5-3.4 3.4-3.4s3.4 1.5 3.4 3.4-1.5 3.4-3.4 3.4-3.4-1.5-3.4-3.4z" fill="#0dd3c5"/><path d="m72.5 199.8h21.6v14.5h-21.6z" fill="#492f5c"/><path d="m106.2 141.1c1.4 0 2.5 1.1 2.5 2.5 0 .2 0 .5-.1.7-2.1 7.1-10.8 13.3-21.3 13.3s-19.2-6.2-21.3-13.3c-.4-1.3.4-2.7 1.7-3.1.2-.1.5-.1.7-.1z" fill="#492f5c"/><path d="m161 79.2h-148.8l6.2-49.2c1.8-14.8 14.5-26 29.4-26h67.3c13.4 0 25.1 8.9 28.6 21.8l5.4 31.5 14.8 14.8c1.6 1.6 1.6 4.3 0 5.9-.8.8-1.8 1.2-2.9 1.2" fill="#ffc500"/><path d="m62.7 4h-14.9c-15 0-27.6 11.2-29.4 26l-6.1 49.2h14.8l6.1-49.2c1.9-14.8 14.5-26 29.5-26" fill="#d19b02"/><g fill="none" stroke="#d19b02" stroke-linecap="round" stroke-miterlimit="10" stroke-width="4"><path d="m99 2c12.9 0 23.4 10.5 23.4 23.4"/><path d="m75.6 2c12.9 0 23.4 10.5 23.4 23.4"/><path d="m52.3 2c12.9 0 23.4 10.5 23.4 23.4"/></g></g></svg>