<svg enable-background="new 0 0 242 279" viewBox="0 0 242 279" xmlns="http://www.w3.org/2000/svg" xmlns:xlink="http://www.w3.org/1999/xlink"><clipPath id="a"><path d="m0 0h242v279h-242z"/></clipPath><clipPath id="b"><path d="m0 0h242v279h-242z"/></clipPath><clipPath id="c"><path d="m0 0h242v279h-242z"/></clipPath><clipPath id="d"><circle cx="119.5" cy="82.5" r="82.5"/></clipPath><clipPath id="e"><circle cx="119.5" cy="82.5" r="82.5"/></clipPath><clipPath id="f"><circle cx="119.5" cy="82.5" r="82.5"/></clipPath><clipPath id="g"><path d="m204.6 94h11.1v5.8h-11.1z"/></clipPath><clipPath id="h"><circle cx="119.5" cy="82.5" r="82.5"/></clipPath><clipPath id="i"><circle cx="119.5" cy="82.5" r="82.5"/></clipPath><clipPath id="j"><path d="m211.4 100.5h11.1v5.8h-11.1z"/></clipPath><clipPath id="k"><circle cx="119.5" cy="82.5" r="82.5"/></clipPath><clipPath id="l"><circle cx="119.5" cy="82.5" r="82.5"/></clipPath><clipPath id="m"><path d="m218.1 107h10.9v6.1h-10.9z"/></clipPath><clipPath id="n"><circle cx="119.5" cy="82.5" r="82.5"/></clipPath><clipPath id="o"><circle cx="119.5" cy="82.5" r="82.5"/></clipPath><clipPath id="p"><circle cx="119.5" cy="82.5" r="82.5"/></clipPath><clipPath id="q"><path d="m53.5 103.1h33.5v68.9h-33.5z"/></clipPath><clipPath id="r"><circle cx="119.5" cy="82.5" r="82.5"/></clipPath><clipPath id="s"><circle cx="119.5" cy="82.5" r="82.5"/></clipPath><clipPath id="t"><circle cx="119.5" cy="82.5" r="82.5"/></clipPath><clipPath id="u"><path d="m147.3 113.7h77.4v26.5h-77.4z"/></clipPath><clipPath id="v"><circle cx="119.5" cy="82.5" r="82.5"/></clipPath><clipPath id="w"><circle cx="119.5" cy="82.5" r="82.5"/></clipPath><clipPath id="x"><path d="m65 101h30.6v147.8h-30.6z"/></clipPath><clipPath id="y"><circle cx="119.5" cy="82.5" r="82.5"/></clipPath><clipPath id="z"><path d="m91 101.1h61.8v7.9h-61.8z"/></clipPath><clipPath id="A"><circle cx="119.5" cy="82.5" r="82.5"/></clipPath><clipPath id="B"><circle cx="119.5" cy="82.5" r="82.5"/></clipPath><clipPath id="C"><path d="m140.5 60.5h16.5v16.5h-16.5z"/></clipPath><clipPath id="D"><circle cx="119.5" cy="82.5" r="82.5"/></clipPath><clipPath id="E"><circle cx="119.5" cy="82.5" r="82.5"/></clipPath><clipPath id="F"><circle cx="119.5" cy="82.5" r="82.5"/></clipPath><clipPath id="G"><circle cx="119.5" cy="82.5" r="82.5"/></clipPath><clipPath id="H"><circle cx="119.5" cy="82.5" r="82.5"/></clipPath><clipPath id="I"><circle cx="119.5" cy="82.5" r="82.5"/></clipPath><clipPath id="J"><circle cx="119.5" cy="82.5" r="82.5"/></clipPath><clipPath id="K"><circle cx="119.5" cy="82.5" r="82.5"/></clipPath><clipPath id="L"><circle cx="119.5" cy="82.5" r="82.5"/></clipPath><clipPath id="M"><circle cx="119.5" cy="82.5" r="82.5"/></clipPath><clipPath id="N"><circle cx="119.5" cy="82.5" r="82.5"/></clipPath><clipPath id="O"><path d="m87 47h5v59h-5z"/></clipPath><clipPath id="P"><circle cx="119.5" cy="82.5" r="82.5"/></clipPath><clipPath id="Q"><path d="m141 47h8v57.8h-8z"/></clipPath><clipPath id="R"><circle cx="119.5" cy="82.5" r="82.5"/></clipPath><clipPath id="S"><path d="m111 104.3h47.7v174.7h-47.7z"/></clipPath><clipPath id="T"><circle cx="119.5" cy="82.5" r="82.5"/></clipPath><clipPath id="U"><circle cx="119.5" cy="82.5" r="82.5"/></clipPath><clipPath id="V"><circle cx="119.5" cy="82.5" r="82.5"/></clipPath><clipPath id="W"><path d="m151.4 98.7h54.3v16.5h-54.3z"/></clipPath><clipPath id="X"><circle cx="119.5" cy="82.5" r="82.5"/></clipPath><clipPath id="Y"><circle cx="119.5" cy="82.5" r="82.5"/></clipPath><clipPath id="Z"><circle cx="119.5" cy="82.5" r="82.5"/></clipPath><clipPath id="aa"><circle cx="119.5" cy="82.5" r="82.5"/></clipPath><clipPath id="ab"><circle cx="119.5" cy="82.5" r="82.5"/></clipPath><clipPath id="ac"><circle cx="119.5" cy="82.5" r="82.5"/></clipPath><clipPath id="ad"><path d="m102.9 127.6h35.1v4.4h-35.1z"/></clipPath><clipPath id="ae"><circle cx="119.5" cy="82.5" r="82.5"/></clipPath><clipPath id="af"><path d="m0 0h242v279h-242z"/></clipPath><clipPath id="ag"><path d="m0 0h242v279h-242z"/></clipPath><clipPath id="ah"><path d="m0 0h242v279h-242z"/></clipPath><clipPath id="ai"><path d="m0 0h242v279h-242z"/></clipPath><clipPath id="aj"><path d="m0 0h242v279h-242z"/></clipPath><clipPath id="ak"><path d="m0 0h242v279h-242z"/></clipPath><g clip-path="url(#a)"><path clip-path="url(#b)" d="m202 82.5c0 45.6-36.9 82.5-82.5 82.5s-82.5-36.9-82.5-82.5 36.9-82.5 82.5-82.5 82.5 36.9 82.5 82.5" fill="#0dd3c5" opacity=".2"/></g><g clip-path="url(#c)"><path clip-path="url(#d)" d="m155.1 177h1.7c3.2 0 5.2-2.5 5.2-6.3v-72.5c0-3.8-2-6.2-5.2-6.2h-79.7c-3.2 0-6.1 2.5-6.1 6.2v72.5c0 3.8 2.9 6.3 6.1 6.3z" fill="#0a776c"/><path clip-path="url(#e)" d="m210.8 105.1 3.8-3.9c1.6-1.7 1.5-4.4-.2-6s-4.5-1.6-6.1.1l-3.7 3.9z" fill="#0ea092"/><g clip-path="url(#f)" opacity=".2"><path clip-path="url(#g)" d="m208.3 96.6c1.6-1.7 4.4-1.7 6.1-.1.7.7 1.2 1.6 1.3 2.5.2-1.3-.2-2.8-1.3-3.8-1.7-1.6-4.5-1.6-6.1.1l-3.7 3.9.6.6z" fill="#fff"/></g><path clip-path="url(#h)" d="m211.4 105.6 3.7-3.9c1.6-1.7 4.4-1.7 6.1-.1s1.8 4.3.2 6l-3.8 3.9z" fill="#0ea092"/><g clip-path="url(#i)" opacity=".2"><path clip-path="url(#j)" d="m215.1 103.1c1.6-1.7 4.4-1.7 6.1-.1.7.7 1.2 1.6 1.3 2.5.2-1.3-.2-2.8-1.3-3.8-1.7-1.6-4.5-1.6-6.1.1l-3.7 3.9.6.6z" fill="#fff"/></g><path clip-path="url(#k)" d="m218.1 112.1 3.7-3.9c1.6-1.7 4.4-1.7 6-.1s1.8 4.3.2 5.9l-3.8 3.9z" fill="#0ea092"/><g clip-path="url(#l)" opacity=".2"><path clip-path="url(#m)" d="m222.5 109.6c1.6-1.7 4.4-1.7 6-.1.2.2.3.4.5.6-.2-.7-.6-1.3-1.1-1.8-1.6-1.6-4.4-1.5-6 .1l-3.7 3.9 1 .9z" fill="#fff"/></g><path clip-path="url(#n)" d="m158.7 191.2c0-21.1-7.1-55.7-7.1-56v-.1c-1.8-6.2-5.2-23.1 1.2-26.8l1.4-.8-6.7-6.4-.3.1c-.3.1-33.1 6.2-59.4 0l-.8-.2-5.2 6.6 1.3.7c6.3 3.7 3 20.5 1.2 26.8-.4 1.4-8.7 34.9-7.1 56 2.4 32.4-11.6 48.1-11.8 48.2l-.3.8-1.8 35.9h1.3c4.9 0 8.9-2.2 12.1-5.4 5.8-5.9 6.8-15.6 6.9-19.1 13.2-.6 24.4-10.8 32.5-29.3 1.5-3.4 2.8-6.9 3.8-10.2 7.1 19.3-8 31.1-8.7 31.6l-.2.4v35h.8c6.8 0 12.4-4.3 16.2-12.4 2.1-4.5 3-9 3.4-11 4.5-.3 8.5-2.2 11.9-5.6 15.4-15.4 15.4-57 15.4-58.8" fill="#0dd3c5"/><path clip-path="url(#o)" d="m78 172h-24.5c0-41 32.5-68.9 32.5-68.9l2.8 13.7z" fill="#0dd3c5"/><g clip-path="url(#p)" opacity=".5"><path clip-path="url(#q)" d="m86 103.1s-32.5 27.9-32.5 68.9h5.8c0-31 18.7-54.3 27.7-63.9z" fill="#0ea092"/></g><path clip-path="url(#r)" d="m79.3 158.5 2.1-9.6s-4-15.5-17.8-16.9c-2.3 4.4-4.4 9.2-6.1 14.3 16.6 1.1 21.8 12.2 21.8 12.2" fill="#0ea092"/><path clip-path="url(#s)" d="m148.1 101.4s21.9 31.3 56.9-2.7l19.7 18.9c-46 44.3-75.3 10.2-75.3 10.2s-9.1-17.9-3.8-22z" fill="#0dd3c5"/><g clip-path="url(#t)" opacity=".5"><path clip-path="url(#u)" d="m220.7 113.7c-41.8 39.1-69.4 13.5-73.4 9.4 1.1 2.7 2.1 4.6 2.1 4.6s29.2 34.1 75.3-10.2z" fill="#0ea092"/></g><path clip-path="url(#v)" d="m180.2 140.3c-3.2-15.3 1.4-24.4 3.5-27.5-4.6 1.6-8.8 2-12.6 1.7-3.7 3.8-9.3 11.6-7.7 22.8 4.6 1.8 10.2 3.2 16.8 3" fill="#0ea092"/><g clip-path="url(#w)" opacity=".5"><path clip-path="url(#x)" d="m65.2 248.8s21.5-17.6 21.5-57.6c0-21.2 3.6-41.8 7.1-56.1 5.7-22.8-3.7-33.4-6.1-33.9l-.8-.2-5.2 6.6 1.3.7c6.3 3.7 3 20.5 1.2 26.8-.4 1.4-8.7 34.9-7.1 56 2.4 32.4-11.6 48.1-11.8 48.2l-.3.4z" fill="#0ea092"/></g><g clip-path="url(#y)" opacity=".5"><path clip-path="url(#z)" d="m152.8 106.2-5.4-5.1-.4.1c-.3.1-30 5.7-56 .8v4.1l1.1.2c.2 0 15.8 2.8 30.4 2.8 15.2 0 30-2.7 30.3-2.9z" fill="#0ea092"/></g><path clip-path="url(#A)" d="m148 60.5c-4.9 0-9 4-9 9 0 4.9 4 9 9 9 4.9 0 9-4 9-9 0-4.9-4.1-9-9-9" fill="#0ea092"/><g clip-path="url(#B)" opacity=".2"><path clip-path="url(#C)" d="m148 60.5c-3.1 0-5.9 1.6-7.5 4 1.4-.9 3.1-1.5 4.9-1.5 4.9 0 9 4 9 9 0 1.8-.5 3.5-1.5 4.9 2.4-1.6 4-4.4 4-7.5.1-4.8-4-8.9-8.9-8.9" fill="#fff"/></g><path clip-path="url(#D)" d="m87.6 78.5c4.9 0 9-4 9-9 0-4.9-4-9-9-9-4.9 0-9 4-9 9s4.1 9 9 9" fill="#0ea092"/><path clip-path="url(#E)" d="m87 47v56.5l.8.2c.2 0 15.7 2.8 30.3 2.8 15.2 0 29.9-2.7 30.1-2.8l.9-.2v-56.5z" fill="#0dd3c5"/><path clip-path="url(#F)" d="m118 37h3v10h-3z" fill="#0ea092"/><path clip-path="url(#G)" d="m114 28h11v10h-11z" fill="#0ea092"/><path clip-path="url(#H)" d="m100.3 70.8c0-1.5 1.2-2.8 2.8-2.8s2.8 1.2 2.8 2.8c0 1.5-1.2 2.8-2.8 2.8s-2.8-1.3-2.8-2.8" fill="#0a776c"/><path clip-path="url(#I)" d="m131.1 70.8c0-1.5 1.2-2.8 2.8-2.8 1.5 0 2.8 1.2 2.8 2.8 0 1.5-1.2 2.8-2.8 2.8-1.5 0-2.8-1.3-2.8-2.8" fill="#0a776c"/><path clip-path="url(#J)" d="m87 87h62v1h-62z" fill="#0a776c"/><path clip-path="url(#K)" d="m130.9 87c0 3.7-6 6.7-13.3 6.7s-13.3-3-13.3-6.7" fill="#0a776c"/><path clip-path="url(#L)" d="m83 140.1s11.2-5.4 13.2-18.2c2-12.7-7.6-20.8-9.3-20.9l-5.4 6.1c-.1.1 10 7.2 1.5 33" fill="#0ea092"/><path clip-path="url(#M)" d="m84.6 139.2c8.3-26.2-1.9-33.5-1.9-33.5l4.2-4.7-5.4 6.1s10.1 7.1 1.6 33c-.1 0 .5-.3 1.5-.9" fill="#0a776c"/><g clip-path="url(#N)" opacity=".5"><path clip-path="url(#O)" d="m87 47h5v59h-5z" fill="#0ea092"/></g><g clip-path="url(#P)" opacity=".2"><path clip-path="url(#Q)" d="m141 47v57.8c4-.6 7-1.1 7.1-1.1l.9-.2v-56.5z" fill="#fff"/></g><g clip-path="url(#R)" opacity=".2"><path clip-path="url(#S)" d="m158.7 191.2c0-21.1-7.1-55.7-7.1-56v-.1c-1.8-6.2-5.2-23.1 1.2-26.8l1.4-.8-3.9-3.2-1.4.8c-6.3 3.7-3 20.6-1.2 26.8v.1c.1.3 7.1 34.9 7.1 56 0 1.8 0 43.4-15.3 58.7-3.5 3.5-7.5 5.4-11.9 5.6-.4 2-1.1 6.4-3.2 11-3.3 7.1-8.4 11.3-13.4 12.2v3.4h.8c6.8 0 12.4-4.3 16.2-12.4 2.1-4.5 3-9 3.4-11 4.5-.3 8.5-2.2 11.9-5.6 15.4-15.3 15.4-56.9 15.4-58.7" fill="#fff"/></g><path clip-path="url(#T)" d="m152.5 140.2s-9.1-6.1-11.1-18.9c-2-12.7 6.1-18.3 7.8-18.4l4.8 4.7c.1-.1-7.9 2.3-1.5 32.6" fill="#0ea092"/><path clip-path="url(#U)" d="m142.7 121.3c-1.7-11.1 4.2-16.7 6.9-18.1l-.3-.3c-1.7.2-9.8 5.7-7.8 18.4s11.1 18.9 11.1 18.9c-.1-.4-.2-.9-.3-1.3-2.8-2.4-8.1-8.2-9.6-17.6" fill="#0a776c"/><g clip-path="url(#V)" opacity=".2"><path clip-path="url(#W)" d="m205.6 99.3c-28 27.2-47.5 12.7-54.3 5.8 7.3 7.1 26.5 20 53.7-6.4z" fill="#fff"/></g><g fill="#0a776c"><path clip-path="url(#X)" d="m114.5 137.1c0-1.3-1.1-2.4-2.4-2.4s-2.4 1.1-2.4 2.4 1.1 2.4 2.4 2.4 2.4-1.1 2.4-2.4"/><path clip-path="url(#Y)" d="m114.5 146.6c0-1.3-1.1-2.4-2.4-2.4s-2.4 1.1-2.4 2.4 1.1 2.4 2.4 2.4 2.4-1 2.4-2.4"/><path clip-path="url(#Z)" d="m119 134h2v16h-2z"/><path clip-path="url(#aa)" d="m124 134h2v16h-2z"/><path clip-path="url(#ab)" d="m130 134h2v16h-2z"/></g><g clip-path="url(#ac)" opacity=".2"><path clip-path="url(#ad)" d="m102.9 127.6 2.8 4.4h29.9l2.4-4.2z" fill="#fff"/></g><path clip-path="url(#ae)" d="m106 131.1v30.4l-3 1.9v-36.3z" fill="#0ea092"/></g><g clip-path="url(#af)" fill="#ffc500"><path clip-path="url(#ag)" d="m217.4 37c0-8 7.6-15.3 15.6-15.3v-.7c-8 0-15.6-7.9-15.6-15.9h-.3c0 8-7.1 15.9-15.1 15.9v.7c8 0 15.2 7.3 15.2 15.3z"/><path clip-path="url(#ah)" d="m42.4 117c0-8 7.6-15.3 15.6-15.3v-.7c-8 0-15.6-7.9-15.6-15.9h-.3c0 8-7.1 15.9-15.1 15.9v.7c8 0 15.2 7.3 15.2 15.3z"/><path clip-path="url(#ai)" d="m233.5 75c0-4 4.5-8.6 8.5-8.6v-.4c-4 0-8.6-5-8.6-9h-.2c0 4-4.3 9-8.3 9v.4c4 0 8.3 4.6 8.3 8.6z"/><path clip-path="url(#aj)" d="m8.5 75c0-4 4.5-8.6 8.5-8.6v-.4c-4 0-8.6-5-8.6-9h-.1c0 4-4.3 9-8.3 9v.4c4 0 8.3 4.6 8.3 8.6z"/><path clip-path="url(#ak)" d="m66.5 30c0-4 4.5-8.6 8.5-8.6v-.4c-4 0-8.6-5-8.6-9h-.2c0 4-4.3 9-8.3 9v.4c4 0 8.3 4.6 8.3 8.6z"/></g></svg>